<svg width="165" height="109" viewBox="0 0 165 109" fill="none" xmlns="http://www.w3.org/2000/svg">
<g clip-path="url(#clip0_602_47800)">
<path d="M165 0V35.1673C165 44.6239 161.247 53.6933 154.567 60.3802C147.887 67.067 138.826 70.8237 129.379 70.8237H23.5672L0 84.4904V35.6564C0 26.1997 3.75292 17.1304 10.4332 10.4435C17.1134 3.75665 26.1738 0 35.621 0L165 0Z" fill="#00AC4D"/>
<path fill-rule="evenodd" clip-rule="evenodd" d="M136.916 45.2542V49.5677H141.411V40.4072C141.416 39.3575 141.213 38.3172 140.815 37.3462C140.416 36.3752 139.83 35.4927 139.089 34.7494C138.349 34.0062 137.469 33.4168 136.5 33.0154C135.531 32.6139 134.492 32.4083 133.444 32.4102H133.274C132.225 32.4024 131.186 32.6023 130.215 32.9985C129.244 33.3946 128.362 33.9791 127.618 34.7184C126.874 35.4576 126.283 36.3369 125.88 37.3057C125.477 38.2744 125.27 39.3133 125.27 40.3627V40.3997V49.5529H129.764V45.2098H136.968M129.764 41.4077V40.0588C129.758 39.0708 130.132 38.1182 130.806 37.3971C131.481 36.6761 132.407 36.2414 133.392 36.1826C134.374 36.2472 135.294 36.6871 135.961 37.4113C136.628 38.1355 136.991 39.0887 136.976 40.0736V41.4744L129.764 41.4077ZM67.5697 49.2712H65.7631C63.8393 49.2458 62.0041 48.4574 60.6604 47.079C59.3167 45.7006 58.5742 43.8449 58.5959 41.9191V40.7629H62.3498V41.0594C62.343 41.6433 62.4511 42.223 62.6681 42.7651C62.885 43.3072 63.2065 43.8013 63.6142 44.2191C64.022 44.6368 64.5079 44.9701 65.0443 45.1998C65.5807 45.4296 66.157 45.5513 66.7404 45.5581H67.4808L67.5697 49.2712ZM73.567 45.5655H77.9576C78.5441 45.5655 79.1249 45.4493 79.6663 45.2235C80.2077 44.9977 80.6991 44.6669 81.1121 44.25C81.5251 43.8331 81.8515 43.3385 82.0726 42.7947C82.2937 42.2509 82.405 41.6687 82.4001 41.0816V35.9899H78.002C77.4155 35.9899 76.8348 36.1062 76.2934 36.3319C75.752 36.5577 75.2606 36.8886 74.8476 37.3055C74.4346 37.7223 74.1081 38.2169 73.8871 38.7607C73.666 39.3045 73.5547 39.8868 73.5596 40.4739L73.567 45.5655ZM77.269 21.3968H79.0238C80.9439 21.43 82.7734 22.2198 84.1152 23.5949C85.4571 24.97 86.2029 26.8194 86.191 28.7416V29.9274H82.4297V29.6458C82.4297 29.0587 82.3136 28.4774 82.088 27.9354C81.8625 27.3935 81.5319 26.9016 81.1155 26.4882C80.699 26.0748 80.2049 25.748 79.6616 25.5267C79.1184 25.3054 78.5367 25.194 77.9502 25.1989H77.1654L77.269 21.3968ZM71.2569 25.1025H66.8737C65.6955 25.1025 64.5655 25.571 63.7324 26.405C62.8993 27.2389 62.4313 28.37 62.4313 29.5494V34.6559H66.8071C67.9853 34.6559 69.1152 34.1874 69.9484 33.3534C70.7815 32.5195 71.2495 31.3884 71.2495 30.209L71.2569 25.1025ZM65.9186 21.3153L75.0256 21.3524V21.6266V31.128C75.0234 31.5882 74.9788 32.0472 74.8923 32.4992C75.61 32.2683 76.3598 32.1533 77.1136 32.1582H82.4889H86.228V41.971C86.2398 43.8954 85.4889 45.7461 84.1399 47.1173C82.7909 48.4886 80.9537 49.2684 79.0312 49.2861H69.9168V48.96V39.4659C69.9199 39.011 69.962 38.5573 70.0427 38.1096C69.3242 38.3369 68.5749 38.4519 67.8214 38.4505H58.7218V28.66C58.7231 26.7568 59.4669 24.9294 60.7946 23.5671C62.1223 22.2049 63.929 21.4155 65.8297 21.3672L65.9186 21.3153ZM44.7059 21.2634H40.1746V38.3616H44.6985V31.8988H47.1196C49.6222 31.8988 51.8508 34.5077 51.8508 36.9979V38.3616H56.4784V35.8121C56.5292 34.513 56.1635 33.2318 55.4348 32.1557C54.7061 31.0795 53.6526 30.265 52.4283 29.831C55.1012 29.3493 56.6116 26.6367 56.6413 24.0057L56.6931 21.2782H52.0729V22.8643C52.0359 26.1031 50.37 28.0523 47.5639 28.0523H44.7503L44.7059 21.2634ZM93.0323 32.1805H88.5084L88.4566 49.3528H92.9879V42.8752H95.372C97.8894 42.8752 100.125 45.4766 100.14 47.9742V49.4565H104.783V46.8477C104.833 45.542 104.464 44.2547 103.729 43.1743C102.995 42.094 101.935 41.2774 100.703 40.8444C103.398 40.3553 104.923 37.6353 104.96 34.9894V32.2472H100.348V33.8406C100.348 37.1091 98.6298 39.0286 95.8163 39.0286H92.9213L93.0323 32.1805ZM123.108 32.2546H118.465V38.7025H111.557V33.5516V32.2916V32.2472H107.019V49.4713H111.543V43.2013H118.465V49.4862H123.004V42.6306L123.041 32.3213L123.108 32.2546ZM24.1077 31.6913H32.9926C32.2966 33.6628 31.0528 34.4558 28.8908 34.4558H23.582V38.3023H29.609C34.3328 38.3023 37.7534 34.1149 37.8423 29.4086C37.7964 27.2461 36.9127 25.186 35.3778 23.6635C33.843 22.1409 31.7771 21.275 29.6164 21.2486H23.6931V25.11H29.2906C30.1156 25.126 30.9153 25.3985 31.5786 25.8899C32.242 26.3813 32.7361 27.0671 32.9926 27.8522H24.1077V31.6913Z" fill="white"/>
<path fill-rule="evenodd" clip-rule="evenodd" d="M67.503 49.3157H65.7631C63.8392 49.2903 62.0041 48.5019 60.6604 47.1235C59.3167 45.7451 58.5742 43.8893 58.5959 41.9636V40.7629H62.3498V41.0594C62.3429 41.6433 62.4511 42.223 62.668 42.7651C62.885 43.3072 63.2065 43.8013 63.6142 44.2191C64.0219 44.6368 64.5079 44.9701 65.0443 45.1998C65.5807 45.4296 66.157 45.5513 66.7404 45.5581H67.4808L67.503 49.3157Z" fill="white"/>
<path fill-rule="evenodd" clip-rule="evenodd" d="M77.1801 21.4116H78.9349C80.8549 21.4448 82.6844 22.2346 84.0263 23.6097C85.3681 24.9848 86.114 26.8342 86.102 28.7564V29.9422H82.3407V29.6457C82.3408 28.4753 81.8799 27.352 81.058 26.5195C80.236 25.6871 79.1193 25.2125 77.9501 25.1989H77.1653L77.1801 21.4116Z" fill="white"/>
<path fill-rule="evenodd" clip-rule="evenodd" d="M82.3409 32.2249H76.9656C76.2118 32.2199 75.462 32.335 74.7443 32.5658C74.8308 32.1139 74.8754 31.6549 74.8776 31.1947V21.6933V21.419L65.7706 21.382C63.8505 21.4054 62.0171 22.1859 60.6684 23.554C59.3196 24.9221 58.5643 26.7675 58.5664 28.6897V38.4802H67.666C68.4195 38.4815 69.1688 38.3665 69.8873 38.1392C69.8066 38.5869 69.7645 39.0407 69.7614 39.4955V48.9896V49.3157H78.8758C80.7983 49.2981 82.6355 48.5182 83.9845 47.147C85.3335 45.7757 86.0844 43.9251 86.0726 42.0006V32.1879L82.3409 32.2249ZM71.1534 30.2535C71.1534 31.4329 70.6853 32.5639 69.8522 33.3979C69.0191 34.2318 67.8891 34.7003 66.7109 34.7003H62.3351V29.5939C62.3351 28.4145 62.8031 27.2834 63.6363 26.4495C64.4694 25.6155 65.5993 25.147 66.7775 25.147H71.1608L71.1534 30.2535ZM82.3187 41.1112C82.3236 41.6983 82.2123 42.2806 81.9912 42.8244C81.7702 43.3682 81.4437 43.8628 81.0307 44.2796C80.6177 44.6965 80.1263 45.0274 79.5849 45.2531C79.0435 45.4789 78.4628 45.5952 77.8763 45.5951H73.4856V40.459C73.4808 39.8719 73.5921 39.2897 73.8131 38.7459C74.0342 38.2021 74.3606 37.7075 74.7736 37.2906C75.1866 36.8738 75.678 36.5429 76.2194 36.3171C76.7609 36.0913 77.3416 35.9751 77.9281 35.9751H82.3261L82.3187 41.1112Z" fill="white"/>
<path d="M5.74557 99.1873H6.24164V99.002C6.28058 98.7151 6.25289 98.4231 6.16073 98.1487C6.06856 97.8743 5.91442 97.6248 5.71026 97.4198C5.50611 97.2147 5.25746 97.0595 4.98363 96.9663C4.70981 96.8731 4.4182 96.8443 4.13148 96.8823C3.1557 96.9186 2.21366 97.2492 1.42899 97.831L0.68858 96.4821C1.73484 95.731 2.99209 95.3314 4.27956 95.3407C6.7007 95.3407 8.09266 96.6748 8.09266 99.1132V105.205H6.36011V104.234C6.36033 103.987 6.37764 103.739 6.41194 103.493H6.37492C6.08072 104.081 5.62953 104.576 5.07144 104.923C4.51335 105.269 3.8702 105.454 3.21337 105.457C1.54005 105.457 0 104.412 0 102.597C0 99.5356 3.74647 99.1873 5.74557 99.1873ZM3.65762 103.953C5.27171 103.953 6.24164 102.315 6.24164 100.884V100.521H5.76778C4.39803 100.521 1.84362 100.64 1.84362 102.411C1.85431 102.634 1.91067 102.853 2.00921 103.053C2.10774 103.254 2.24634 103.432 2.41642 103.576C2.58651 103.721 2.78444 103.829 2.99794 103.893C3.21145 103.958 3.43598 103.978 3.65762 103.953Z" fill="#1D322B"/>
<path d="M10.8101 95.5482H12.5204V96.408C12.521 96.6562 12.5012 96.9041 12.4612 97.1491H12.5056C12.8226 96.5755 13.2937 96.1022 13.8655 95.7826C14.4373 95.463 15.087 95.31 15.7412 95.3407C18.3474 95.3407 19.9615 97.3937 19.9615 100.388C19.9615 103.382 18.1327 105.435 15.6079 105.435C15.0032 105.438 14.4079 105.286 13.879 104.992C13.3501 104.699 12.9052 104.275 12.587 103.76C12.6387 104.036 12.6635 104.317 12.6611 104.598V108.978H10.8101V95.5482ZM15.3191 103.819C16.8444 103.819 18.0957 102.582 18.0957 100.388C18.0957 98.1941 16.9777 96.9416 15.3784 96.9416C13.8976 96.9416 12.5944 97.9718 12.5944 100.41C12.587 102.122 13.5496 103.819 15.3191 103.819Z" fill="#1D322B"/>
<path d="M24.1669 100.24L21.0646 95.5482H23.1747L24.9665 98.5128L25.2701 99.0835C25.2701 99.0835 25.4626 98.7648 25.5959 98.5128L27.3877 95.5482H29.4978L26.3955 100.24L29.6903 105.19H27.632L25.6107 101.974C25.4626 101.744 25.3071 101.455 25.3071 101.455C25.2237 101.634 25.1298 101.807 25.0258 101.974L22.9526 105.19H20.8721L24.1669 100.24Z" fill="#1D322B"/>
<path d="M31.4749 95.5482H33.2444V101.307C33.2465 101.74 33.2267 102.173 33.1852 102.604C33.4536 102.157 33.7452 101.724 34.0589 101.307L38.2052 95.5482H39.997V105.183H38.2274V99.4318C38.2274 98.9723 38.2866 98.3053 38.2866 98.157H38.2496C38.1904 98.3275 37.7165 98.9723 37.4129 99.4318L33.2444 105.183H31.4749V95.5482Z" fill="#1D322B"/>
<path d="M45.1649 97.1343H41.8257V95.5482H50.3478V97.1343H47.0011V105.19H45.1649V97.1343Z" fill="#1D322B"/>
<path d="M56.0637 95.3259C58.781 95.3259 60.2248 97.3641 60.2248 99.8395C60.2158 100.088 60.1911 100.335 60.1508 100.581H53.1465C53.1441 101.012 53.2292 101.439 53.3966 101.836C53.564 102.234 53.8101 102.593 54.1203 102.892C54.4304 103.192 54.7979 103.425 55.2007 103.578C55.6035 103.731 56.0331 103.8 56.4635 103.782C57.5136 103.762 58.5207 103.361 59.2993 102.656L60.0397 104.012C59.0059 104.892 57.6946 105.378 56.3377 105.383C55.6647 105.411 54.9932 105.3 54.3649 105.057C53.7366 104.814 53.1648 104.444 52.6851 103.971C52.2054 103.498 51.8279 102.931 51.5761 102.306C51.3244 101.68 51.2036 101.01 51.2214 100.336C51.2289 97.3048 53.3094 95.3259 56.0637 95.3259ZM58.3664 99.3133C58.3072 97.6605 57.278 96.7785 56.0193 96.7785C55.3184 96.7716 54.6405 97.0282 54.1195 97.4976C53.5985 97.9669 53.2725 98.6148 53.2057 99.3133H58.3664Z" fill="#1D322B"/>
<path d="M62.4534 95.5482H64.297V99.4392H65.6519L68.2804 95.5482H70.3387L67.1253 100.143L70.7237 105.153H68.5025L65.6297 100.981H64.297V105.153H62.4534V95.5482Z" fill="#1D322B"/>
<path d="M74.7072 97.1343H71.3606V95.5482H79.9049V97.1343H76.5361V105.19H74.7072V97.1343Z" fill="#1D322B"/>
<path d="M85.9317 95.3259C86.9234 95.3536 87.8849 95.6736 88.6959 96.2457C89.5068 96.8179 90.1311 97.6168 90.4905 98.5424C90.85 99.468 90.9287 100.479 90.7167 101.449C90.5048 102.42 90.0116 103.306 89.299 103.997C88.5863 104.687 87.6859 105.153 86.7104 105.334C85.7349 105.515 84.7277 105.404 83.815 105.015C82.9022 104.625 82.1244 103.975 81.579 103.146C81.0336 102.316 80.7448 101.344 80.7488 100.351C80.7485 99.677 80.8835 99.01 81.1459 98.3895C81.4083 97.7689 81.7927 97.2076 82.2763 96.7388C82.7598 96.2699 83.3326 95.9033 83.9606 95.6606C84.5885 95.4178 85.2589 95.304 85.9317 95.3259ZM85.9317 103.819C86.8448 103.819 87.7205 103.456 88.3662 102.81C89.0118 102.164 89.3746 101.287 89.3746 100.373C89.3746 99.4591 89.0118 98.5825 88.3662 97.9362C87.7205 97.2899 86.8448 96.9268 85.9317 96.9268C85.0186 96.9268 84.1428 97.2899 83.4972 97.9362C82.8515 98.5825 82.4888 99.4591 82.4888 100.373C82.4888 101.287 82.8515 102.164 83.4972 102.81C84.1428 103.456 85.0186 103.819 85.9317 103.819Z" fill="#1D322B"/>
<path d="M93.3582 95.5482H95.0685V96.408C95.0691 96.6562 95.0493 96.9041 95.0093 97.1491H95.0537C95.3707 96.5755 95.8418 96.1022 96.4136 95.7826C96.9854 95.463 97.6351 95.31 98.2893 95.3407C100.896 95.3407 102.51 97.3937 102.51 100.388C102.51 103.382 100.681 105.435 98.156 105.435C97.5649 105.432 96.9839 105.28 96.4665 104.994C95.949 104.708 95.5116 104.296 95.1944 103.797H95.1574C95.209 104.073 95.2338 104.354 95.2314 104.635V109.015H93.3878L93.3582 95.5482ZM97.8672 103.819C99.3925 103.819 100.644 102.582 100.644 100.388C100.644 98.1941 99.5258 96.9416 97.9265 96.9416C96.4457 96.9416 95.1425 97.9718 95.1425 100.41C95.1425 102.122 96.0977 103.819 97.8672 103.819Z" fill="#1D322B"/>
<path d="M104.79 95.5482H106.619V99.039H108.5C110.499 99.039 112.002 99.9506 112.002 102.144C112.002 103.953 110.898 105.19 108.485 105.19H104.783L104.79 95.5482ZM108.255 103.856C109.588 103.856 110.158 103.115 110.158 102.122C110.158 101.129 109.573 100.373 108.24 100.373H106.619V103.856H108.255ZM113.512 95.5482H115.356V105.183H113.512V95.5482Z" fill="#1D322B"/>
<path d="M127.513 95.3259C128.505 95.3536 129.466 95.6736 130.277 96.2457C131.088 96.8179 131.713 97.6168 132.072 98.5424C132.432 99.468 132.51 100.479 132.298 101.449C132.086 102.42 131.593 103.306 130.88 103.997C130.168 104.687 129.267 105.153 128.292 105.334C127.316 105.515 126.309 105.404 125.397 105.015C124.484 104.625 123.706 103.975 123.161 103.146C122.615 102.316 122.326 101.344 122.33 100.351C122.33 99.677 122.465 99.01 122.727 98.3895C122.99 97.7689 123.374 97.2076 123.858 96.7388C124.341 96.2699 124.914 95.9033 125.542 95.6606C126.17 95.4178 126.84 95.304 127.513 95.3259ZM127.513 103.819C128.198 103.844 128.875 103.664 129.457 103.302C130.039 102.94 130.499 102.412 130.78 101.787C131.061 101.161 131.148 100.465 131.032 99.7895C130.915 99.1135 130.6 98.4877 130.126 97.9922C129.652 97.4967 129.041 97.154 128.372 97.008C127.702 96.862 127.004 96.9193 126.368 97.1726C125.731 97.4259 125.184 97.8637 124.797 98.4299C124.41 98.9961 124.201 99.6649 124.196 100.351C124.179 100.8 124.253 101.249 124.413 101.669C124.574 102.089 124.817 102.472 125.129 102.796C125.44 103.12 125.814 103.378 126.228 103.553C126.641 103.729 127.086 103.82 127.535 103.819H127.513Z" fill="#1D322B"/>
<path d="M134.932 95.5482H136.783V99.4392H138.131L140.759 95.5482H142.854L139.634 100.143L143.232 105.153H141.011L138.138 100.981H136.753V105.153H134.902L134.932 95.5482Z" fill="#1D322B"/>
<path d="M149.014 95.3259C150.006 95.3536 150.968 95.6736 151.779 96.2457C152.59 96.8179 153.214 97.6168 153.573 98.5424C153.933 99.468 154.011 100.479 153.799 101.449C153.588 102.42 153.094 103.306 152.382 103.997C151.669 104.687 150.769 105.153 149.793 105.334C148.818 105.515 147.81 105.404 146.898 105.015C145.985 104.625 145.207 103.975 144.662 103.146C144.116 102.316 143.828 101.344 143.832 100.351C143.831 99.677 143.966 99.01 144.229 98.3895C144.491 97.7689 144.875 97.2076 145.359 96.7388C145.843 96.2699 146.415 95.9033 147.043 95.6606C147.671 95.4178 148.342 95.304 149.014 95.3259ZM149.014 103.819C149.928 103.819 150.803 103.456 151.449 102.81C152.095 102.164 152.457 101.287 152.457 100.373C152.457 99.4591 152.095 98.5825 151.449 97.9362C150.803 97.2899 149.928 96.9268 149.014 96.9268C148.101 96.9268 147.226 97.2899 146.58 97.9362C145.934 98.5825 145.572 99.4591 145.572 100.373C145.572 101.287 145.934 102.164 146.58 102.81C147.226 103.456 148.101 103.819 149.014 103.819Z" fill="#1D322B"/>
<path d="M156.441 95.5482H158.285V99.4763H163.156V95.5482H165V105.183H163.156V101.048H158.285V105.183H156.441V95.5482Z" fill="#1D322B"/>
</g>
<defs>
<clipPath id="clip0_602_47800">
<rect width="165" height="109" fill="white"/>
</clipPath>
</defs>
</svg>
