<svg width="40" height="41" viewBox="0 0 40 41" fill="none" xmlns="http://www.w3.org/2000/svg">
<path d="M20 35.5C28.2843 35.5 35 28.7843 35 20.5C35 12.2157 28.2843 5.5 20 5.5C11.7157 5.5 5 12.2157 5 20.5C5 28.7843 11.7157 35.5 20 35.5Z" stroke="#F23B3E" stroke-width="3" stroke-miterlimit="10"/>
<path d="M5.854 15.5H34.1454" stroke="#F23B3E" stroke-width="3" stroke-linecap="round" stroke-linejoin="round"/>
<path d="M5.85498 25.5H34.1462" stroke="#F23B3E" stroke-width="3" stroke-linecap="round" stroke-linejoin="round"/>
<path d="M20 35.0973C23.4518 35.0973 26.25 28.5619 26.25 20.5C26.25 12.4381 23.4518 5.90265 20 5.90265C16.5482 5.90265 13.75 12.4381 13.75 20.5C13.75 28.5619 16.5482 35.0973 20 35.0973Z" stroke="#F23B3E" stroke-width="3" stroke-miterlimit="10"/>
</svg>
