<svg width="40" height="41" viewBox="0 0 40 41" fill="none" xmlns="http://www.w3.org/2000/svg">
<path d="M37.6121 19.5289L33.75 21.4599L28.75 11.8846L32.6515 9.93391C32.9446 9.78735 33.2835 9.76176 33.5953 9.86266C33.9071 9.96355 34.1668 10.1829 34.3185 10.4734L38.1611 17.8323C38.238 17.9794 38.2847 18.1404 38.2987 18.3058C38.3126 18.4712 38.2935 18.6378 38.2424 18.7957C38.1913 18.9536 38.1092 19.0998 38.001 19.2257C37.8928 19.3516 37.7606 19.4546 37.6121 19.5289V19.5289Z" stroke="#F23B3E" stroke-width="3" stroke-linecap="round" stroke-linejoin="round"/>
<path d="M6.24989 21.2924L2.38776 19.3613C2.23928 19.2871 2.10708 19.184 1.99887 19.0582C1.89066 18.9323 1.8086 18.7861 1.75749 18.6282C1.70639 18.4702 1.68725 18.3037 1.7012 18.1383C1.71515 17.9729 1.76191 17.8119 1.83874 17.6647L5.68139 10.3058C5.83308 10.0153 6.09278 9.79602 6.40458 9.69512C6.71637 9.59422 7.05532 9.61981 7.34844 9.76637L11.2499 11.7171L6.24989 21.2924Z" stroke="#F23B3E" stroke-width="3" stroke-linecap="round" stroke-linejoin="round"/>
<path d="M33.75 21.4599L31.25 24.3846L25.5004 30.1341C25.3478 30.2868 25.1583 30.3973 24.9502 30.4549C24.7422 30.5125 24.5228 30.5153 24.3134 30.4629L15.2576 28.199C15.0878 28.1565 14.9287 28.0788 14.7908 27.971L6.25 21.2924" stroke="#F23B3E" stroke-width="3" stroke-linecap="round" stroke-linejoin="round"/>
<path d="M31.2501 24.3846L24.3751 19.3846L22.3751 20.8846C21.5096 21.5337 20.4569 21.8846 19.3751 21.8846C18.2932 21.8846 17.2405 21.5337 16.3751 20.8846L15.5281 20.2493C15.3848 20.1419 15.2663 20.0049 15.1806 19.8477C15.0949 19.6904 15.0439 19.5166 15.0312 19.338C15.0185 19.1593 15.0444 18.98 15.107 18.8122C15.1696 18.6445 15.2676 18.4921 15.3942 18.3655L21.5089 12.2507C21.625 12.1346 21.7628 12.0426 21.9145 11.9797C22.0661 11.9169 22.2287 11.8846 22.3928 11.8846H28.7501" stroke="#F23B3E" stroke-width="3" stroke-linecap="round" stroke-linejoin="round"/>
<path d="M11.3398 11.7172L19.3586 9.37943C19.645 9.29592 19.9519 9.31762 20.2237 9.44063L25.6251 11.8846" stroke="#F23B3E" stroke-width="3" stroke-linecap="round" stroke-linejoin="round"/>
<path d="M17.5 33.7596L12.7907 32.5823C12.5996 32.5345 12.4225 32.4423 12.2738 32.313L8.75 29.25" stroke="#F23B3E" stroke-width="3" stroke-linecap="round" stroke-linejoin="round"/>
</svg>
