<svg width="40" height="41" viewBox="0 0 40 41" fill="none" xmlns="http://www.w3.org/2000/svg">
<path d="M23.7491 32.9989V25.4987C23.7491 25.1672 23.6174 24.8493 23.383 24.6148C23.1485 24.3804 22.8306 24.2487 22.4991 24.2487H17.4991C17.1676 24.2487 16.8496 24.3804 16.6152 24.6148C16.3808 24.8493 16.2491 25.1672 16.2491 25.4987V32.9989C16.2491 33.3304 16.1174 33.6483 15.883 33.8827C15.6486 34.1171 15.3307 34.2488 14.9992 34.2489L7.50016 34.2499C7.33599 34.2499 7.17343 34.2176 7.02175 34.1548C6.87008 34.0919 6.73226 33.9999 6.61617 33.8838C6.50008 33.7677 6.40799 33.6299 6.34517 33.4782C6.28234 33.3266 6.25 33.164 6.25 32.9999V18.5529C6.25 18.3788 6.28639 18.2065 6.35684 18.0473C6.42728 17.888 6.53023 17.7452 6.65908 17.6281L19.1582 6.26326C19.3883 6.05405 19.6881 5.93812 19.9991 5.93811C20.3101 5.9381 20.6099 6.05401 20.84 6.2632L33.3409 17.6281C33.4697 17.7452 33.5727 17.888 33.6431 18.0473C33.7136 18.2066 33.75 18.3788 33.75 18.553V32.9999C33.75 33.164 33.7177 33.3266 33.6548 33.4783C33.592 33.6299 33.4999 33.7677 33.3838 33.8838C33.2677 33.9999 33.1299 34.0919 32.9782 34.1548C32.8266 34.2176 32.664 34.2499 32.4998 34.2499L24.9989 34.2489C24.6674 34.2488 24.3495 34.1171 24.1151 33.8827C23.8808 33.6483 23.7491 33.3304 23.7491 32.9989V32.9989Z" stroke="#F23B3E" stroke-width="3" stroke-linecap="round" stroke-linejoin="round"/>
</svg>
