<svg width="32" height="32" viewBox="0 0 32 32" fill="none" xmlns="http://www.w3.org/2000/svg">
<path fill-rule="evenodd" clip-rule="evenodd" d="M11.916 2.66699H20.0966C27.5688 2.66699 29.3327 4.44474 29.3327 11.917V20.0975C29.3327 27.5697 27.5549 29.3337 20.0827 29.3337H11.9021C4.42994 29.3337 2.66602 27.5558 2.66602 20.0837V11.9031C2.66602 4.44474 4.44376 2.66699 11.916 2.66699ZM19.9633 10.3772C17.3249 10.1708 14.6745 10.1708 12.0362 10.3772L10.2639 10.5159C9.2767 10.5931 8.46912 11.3329 8.30594 12.3096C7.89765 14.7532 7.89765 17.2477 8.30594 19.6913C8.46912 20.668 9.2767 21.4078 10.2639 21.485L12.0362 21.6237C14.6745 21.8301 17.3249 21.8301 19.9633 21.6237L21.7356 21.485C22.7227 21.4078 23.5303 20.668 23.6935 19.6913C24.1018 17.2477 24.1018 14.7532 23.6935 12.3096C23.5303 11.3329 22.7227 10.5931 21.7356 10.5159L19.9633 10.3772ZM14.4178 14.0467V17.9542C14.4178 18.1386 14.619 18.2526 14.7772 18.1577L18.0334 16.2039C18.187 16.1118 18.187 15.8891 18.0334 15.797L14.7772 13.8432C14.619 13.7483 14.4178 13.8622 14.4178 14.0467Z" fill="#F23B3E"/>
</svg>
