<svg width="32" height="32" viewBox="0 0 32 32" fill="none" xmlns="http://www.w3.org/2000/svg">
<path d="M20.0966 2.66699H11.916C4.44376 2.66699 2.66602 4.44474 2.66602 11.9031V20.0837C2.66602 27.5558 4.42994 29.3337 11.9021 29.3337H20.0827C27.5549 29.3337 29.3327 27.5697 29.3327 20.0975V11.917C29.3327 4.44474 27.5688 2.66699 20.0966 2.66699Z" fill="#45B8F1"/>
<path d="M21.0073 22.7402C21.1042 22.6476 21.1801 22.5352 21.23 22.4108L23.7747 9.41549C23.7747 8.54878 22.6 9.07214 22.6 9.07214L8.31068 14.7488C8.31068 14.7488 7.63402 14.9835 7.68869 15.4155C7.74069 15.8508 8.29269 16.0488 8.29269 16.0488L11.8867 17.2728L20.5167 11.7208C20.5167 11.7208 21.014 11.4134 20.9987 11.7208C20.9987 11.7208 21.0874 11.7754 20.8187 12.0274C20.5534 12.2801 14.0401 18.2101 14.0401 18.2101L14.031 18.2888L14.0167 18.2775L13.5714 22.2621C13.634 22.286 13.7016 22.2938 13.768 22.2847C13.8344 22.2756 13.8975 22.25 13.9514 22.2102L16.2745 20.0669L19.894 22.8794C20.0107 22.9454 20.1402 22.9857 20.2738 22.9976C20.4073 23.0094 20.5418 22.9926 20.6684 22.9482C20.7949 22.9039 20.9104 22.8329 21.0073 22.7402Z" fill="white"/>
</svg>
