<svg width="22" height="22" viewBox="0 0 22 22" fill="none" xmlns="http://www.w3.org/2000/svg">
<path fill-rule="evenodd" clip-rule="evenodd" d="M5.40017 10.2999C5.40017 7.5934 7.59425 5.39932 10.3008 5.39932C13.0073 5.39932 15.2014 7.5934 15.2014 10.2999C15.2014 11.6178 14.6812 12.8141 13.835 13.6948C13.8087 13.7146 13.7834 13.7364 13.7595 13.7604C13.7356 13.7842 13.7139 13.8094 13.6942 13.8356C12.8136 14.681 11.6179 15.2005 10.3008 15.2005C7.59425 15.2005 5.40017 13.0065 5.40017 10.2999ZM14.2327 15.2236C13.1549 16.0854 11.788 16.6007 10.3008 16.6007C6.82095 16.6007 4 13.7798 4 10.2999C4 6.8201 6.82095 3.99915 10.3008 3.99915C13.7806 3.99915 16.6016 6.8201 16.6016 10.2999C16.6016 11.7881 16.0857 13.1557 15.223 14.2337L17.7949 16.8057C18.0683 17.0791 18.0683 17.5224 17.7949 17.7958C17.5215 18.0692 17.0783 18.0692 16.8049 17.7958L14.2327 15.2236Z" fill="#9E9E9E"/>
</svg>
