<svg width="24" height="24" viewBox="0 0 24 24" fill="none" xmlns="http://www.w3.org/2000/svg">
<path fill-rule="evenodd" clip-rule="evenodd" d="M17.7175 8.48611C17.8065 8.21194 17.7175 8.01264 17.3238 8.01264H16.0145C15.6843 8.01264 15.5318 8.18715 15.4428 8.37382C15.4428 8.37382 14.7693 9.96826 13.8288 11.002C13.5238 11.3009 13.384 11.4006 13.2188 11.4006C13.1298 11.4006 13.0153 11.3009 13.0153 11.027V8.47323C13.0153 8.14948 12.9138 8 12.634 8H10.575C10.3715 8 10.2445 8.14948 10.2445 8.29896C10.2445 8.61031 10.7148 8.68517 10.7655 9.55701V11.4514C10.7655 11.8624 10.6905 11.9375 10.524 11.9375C10.0793 11.9375 8.999 10.3307 8.351 8.49972C8.225 8.13708 8.097 8 7.7665 8H6.44475C6.0635 8 6 8.17427 6 8.36118C6 8.69757 6.44475 10.3914 8.0715 12.6334C9.15175 14.1646 10.6895 14.9876 12.0748 14.9876C12.9138 14.9876 13.0153 14.8007 13.0153 14.4893V13.3309C13.0153 12.9574 13.0915 12.8951 13.3585 12.8951C13.549 12.8951 13.8923 12.9945 14.6675 13.7295C15.557 14.6014 15.7095 15 16.2053 15H17.5143C17.8955 15 18.0735 14.8131 17.9718 14.4519C17.8575 14.0907 17.4253 13.5677 16.866 12.945C16.561 12.5964 16.1035 12.2102 15.9638 12.0233C15.7733 11.7742 15.824 11.6745 15.9638 11.4504C15.951 11.4504 17.5525 9.23326 17.7175 8.48514" fill="white"/>
</svg>
