<svg width="235" height="101" viewBox="0 0 235 101" fill="none" xmlns="http://www.w3.org/2000/svg">
<g clip-path="url(#clip0_602_47750)">
<mask id="mask0_602_47750" style="mask-type:luminance" maskUnits="userSpaceOnUse" x="0" y="0" width="235" height="101">
<path d="M0.25 0H234.25V101H0.25V0Z" fill="white"/>
</mask>
<g mask="url(#mask0_602_47750)">
<path d="M0.49585 20.387L62.9943 0L76.8963 41.872L14.3903 62.259L0.49585 20.387Z" fill="white"/>
<path fill-rule="evenodd" clip-rule="evenodd" d="M57.2716 94.2835L56.6591 89.14L55.0092 68.5124L53.0607 59.0689L49.115 59.5094L42.4606 59.0076L42.632 58.0438L48.5769 57.2272L54.7688 55.06L54.5423 54.2295L51.3882 54.5164L50.6236 50.356L76.6472 41.8677L72.4449 29.204L73.6494 27.79V25.5025L72.3748 23.7898L70.8188 24.298L62.7528 0L0.25 20.387L2.06269 25.8485H1.38441L0.77623 26.202L1.38441 29.0375L2.98252 31.1972L3.87538 31.31L14.1487 62.259L31.9263 56.459L32.6315 57.6012L35.6412 58.4092L36.2342 61.1319L41.7931 60.6L39.0261 64.1081L36.1361 64.8968L32.4212 65.0279L32.4018 65.7241L35.7824 65.8746L35.6886 66.3022L32.0546 66.3688L28.9943 67.0242L25.2955 68.1524L25.2912 68.1632L25.2007 68.5747L25.0928 69.0485L26.3318 69.9425L28.2815 68.6875L30.9709 67.4444L33.6646 67.2617L31.8993 68.5747L24.6518 73.2089L23.9692 76.8685L21.5365 82.1592L19.2008 91.5801L21.5483 91.6876L20.168 93.2423L17.1584 96.2723L13.1426 98.6308L13.3216 100.973L18.254 101L23.0882 98.8747L24.4523 96.2638L27.1427 95.9113L27.5989 92.5472L31.5758 92.0776L33.1976 85.8736L34.9241 84.3973L34.3083 82.8286L38.6551 71.594C39.0056 70.6914 40.0979 68.6252 40.9714 68.4705L45.205 78.9863L44.8545 80.7377L47.9687 91.1138L48.0313 92.7062H50.0823L50.0543 93.3433L48.9705 94.5865L49.7232 98.5373L54.8971 98.5448L60.1443 100.996H64.7132L64.7488 98.4793L62.2611 98.0474L57.2716 94.2835ZM71.4852 29.8154L75.2519 41.1618L50.4252 49.2611L49.8839 46.3042L56.6666 40.3377L58.1008 40.4817L59.8176 38.8302L59.9577 37.933L61.1741 37.5365L61.7823 36.8994L62.3279 36.3299V36.3138L67.4824 30.7975L70.6711 30.2925L71.4852 29.8143V29.8154ZM14.8507 60.8708C11.5941 51.062 8.34403 41.2574 5.0842 31.4518L5.18557 31.4647L6.60898 31.4142L10.987 36.0796L11.9619 37.0702L14.7407 39.3889L16.3831 39.8434L16.5696 40.9072L18.4405 42.0224L20.223 41.7667L23.6306 43.5568L28.3322 48.8904L29.8839 53.1593L31.3181 55.4866L14.8507 60.8708ZM40.6015 37.1669L40.6199 35.2823L43.8204 33.9929L43.7859 33.1892L43.0612 32.0933L42.8186 30.9941L43.4818 30.213L43.2445 29.7241L41.1698 28.7571L40.8301 28.1468L40.8657 26.8767L39.8133 25.9753L38.1019 24.514L36.9481 24.1487L36.5071 23.4116L34.8108 23.4546L33.9104 24.7203L30.8425 26.2396L29.5561 30.0346L30.4101 30.5751L30.6323 32.3501L33.7239 34.8214L33.9029 36.7199L31.2868 36.7275L30.5266 37.9126L28.839 37.4312L25.5177 36.475L21.9225 36.2386L21.5559 35.1974L19.9146 34.0005L19.1587 34.0596L18.7684 34.1101L16.203 32.1825L13.3141 30.5944L10.9903 28.8301V28.8387L9.24336 27.5139L8.64812 26.0526L7.67761 24.7482L6.20676 21.4303L5.29879 21.4657L5.06479 23.1591L5.54034 24.4055L4.9796 25.8474L3.22838 25.8431C2.70215 24.2583 2.18023 22.6734 1.64969 21.0886C21.7845 14.5322 41.9225 7.95106 62.0551 1.38391L69.7739 24.6397L69.3027 24.8148L68.1801 24.1508L68.5381 22.5542L68.2577 20.7942L67.7746 20.5073L66.1172 24.5817L65.5134 27.3667L62.3279 28.8742V28.8699L57.4355 31.9429L55.6886 33.7372L54.8809 33.3536L53.3259 34.4496L53.0564 35.2802L49.0773 37.5763L46.6435 37.6064L43.829 38.582L42.8779 37.4785L40.6004 37.168L40.6015 37.1669Z" fill="#E20613"/>
<path fill-rule="evenodd" clip-rule="evenodd" d="M27.8943 63.7235L31.6178 64.0845L34.5218 63.8127L39.0681 62.6394V62.6318H39.0724L39.1532 62.0452L39.1576 62.0183V62.0065L36.4401 62.7285L33.1652 62.9004L30.616 62.6318L28.5262 61.8195L27.532 62.8994V62.9037L27.5244 62.9112L27.8943 63.7235ZM230.038 55.0332C230.478 55.033 230.914 55.1192 231.321 55.2869C231.728 55.4547 232.098 55.7006 232.41 56.0108C232.721 56.3209 232.969 56.6892 233.137 57.0945C233.306 57.4999 233.393 57.9344 233.393 58.3732C233.393 58.812 233.307 59.2466 233.139 59.6521C232.97 60.0576 232.723 60.4261 232.412 60.7365C232.101 61.047 231.731 61.2933 231.324 61.4614C230.918 61.6295 230.482 61.7162 230.041 61.7164C229.152 61.7168 228.299 61.3652 227.669 60.7388C227.04 60.1124 226.686 59.2626 226.686 58.3764C226.685 57.4902 227.038 56.64 227.667 56.0131C228.296 55.3861 229.148 55.0336 230.038 55.0332ZM230.038 54.6335C230.78 54.6341 231.505 54.8537 232.122 55.2647C232.739 55.6756 233.22 56.2595 233.504 56.9425C233.692 57.3961 233.789 57.8823 233.789 58.3733C233.789 58.8642 233.691 59.3503 233.503 59.8038C233.315 60.2576 233.039 60.6699 232.691 61.0169C232.342 61.364 231.929 61.6389 231.473 61.826C230.961 62.0376 230.407 62.1333 229.853 62.1062C229.299 62.0791 228.757 61.9298 228.268 61.6692C227.778 61.4085 227.353 61.0429 227.023 60.5988C226.692 60.1546 226.464 59.643 226.356 59.1007C226.248 58.5583 226.262 57.9988 226.397 57.4625C226.532 56.9261 226.784 56.4263 227.137 55.9989C227.489 55.5716 227.932 55.2273 228.433 54.991C228.935 54.7547 229.483 54.6333 230.038 54.6335Z" fill="#E20613"/>
<path d="M228.947 56.3816H229.964C230.861 56.3816 231.137 56.8243 231.137 57.2326C231.137 57.6871 230.579 58.075 229.773 58.075H228.943V56.3816H228.947ZM228.385 56.012V60.5108H228.943V58.4371H229.698C230.248 58.4371 230.405 58.638 230.537 58.8443L231.515 60.5097H232.14L231.102 58.7627C230.985 58.565 230.864 58.32 230.459 58.277V58.2695C231.199 58.2072 231.749 57.7645 231.749 57.2208C231.749 56.7351 231.457 56.012 229.921 56.012H228.385Z" fill="#E20613"/>
<path fill-rule="evenodd" clip-rule="evenodd" d="M127.781 68.6091H129.917L129.091 58.3769L128.923 58.2802L127.781 68.6091ZM125.496 54.5045H133.629L136.908 77.9129H131.029L130.346 72.1537H127.138L126.171 77.9129H121.181L125.496 54.5045ZM110.506 77.9129H104.588V54.5045H110.506V63.1787H113.648V54.5045H119.571V77.9129H113.648V66.8029H110.506V77.9129ZM93.3874 77.9129H87.4695V54.5045H93.3874V65.1171H93.4618L97.2036 54.5045H102.842L98.8848 64.8334L102.869 77.9129H97.0289L93.4618 66.0379H93.3863L93.3874 77.9129ZM76.2622 59.6362V72.7931C76.2622 74.0179 76.7906 74.6304 77.8334 74.6304C78.8751 74.6304 79.4045 74.0126 79.4045 72.7931V59.6362C79.4045 58.4048 78.874 57.7913 77.8334 57.7913C76.7874 57.787 76.2622 58.4006 76.2622 59.6362ZM85.3225 60.8826V71.5349C85.3225 76.0992 82.8272 78.3749 77.8334 78.3749C72.8396 78.3749 70.3357 76.0949 70.3357 71.5349V60.8826C70.3357 59.1849 70.6797 57.8332 71.3536 56.8157C71.9866 55.827 72.9253 55.0705 74.0279 54.6603C75.1429 54.252 76.4068 54.0382 77.8291 54.0382C79.2557 54.0382 80.5314 54.2477 81.6378 54.6614C82.7485 55.0804 83.6381 55.7939 84.3121 56.8157C84.9828 57.8332 85.3225 59.1849 85.3225 60.8826ZM216.815 68.5865H218.953L218.126 58.3544L217.954 58.2619L216.815 68.5865ZM214.527 54.482H222.664L225.938 77.8903H220.063L219.385 72.1312H216.173L215.202 77.8903H210.216L214.527 54.482ZM199.252 58.0245H195.113V54.482H209.326V58.0245H205.17V77.8914H199.249V58.0245H199.252ZM187.873 68.7735H193.759V71.8658C193.759 76.1927 191.249 78.3448 186.235 78.3448C181.26 78.3448 178.781 76.0723 178.781 71.5037V60.8525C178.781 56.2881 181.26 54.0114 186.235 54.0114C188.645 54.0114 190.508 54.4583 191.802 55.3673C193.108 56.272 193.759 57.9041 193.759 60.2669V62.8263H187.834V59.605C187.834 59.0463 187.736 58.6187 187.53 58.3157C187.327 58.0127 186.925 57.8612 186.336 57.8612C185.245 57.8612 184.699 58.4435 184.699 59.605V72.7587C184.699 73.9202 185.206 74.4993 186.231 74.4993C187.299 74.4993 187.834 73.9202 187.834 72.7587L187.873 68.7724V68.7735ZM167.576 59.6136V72.7662C167.576 73.9943 168.095 74.6035 169.14 74.6035C170.188 74.6035 170.718 73.9975 170.718 72.7662V59.6147C170.718 58.3791 170.188 57.7645 169.14 57.7645C168.095 57.7602 167.576 58.3791 167.576 59.6136ZM176.629 60.8568V71.508C176.629 76.0723 174.141 78.3491 169.14 78.3491C164.149 78.3491 161.651 76.0766 161.651 71.508V60.8579C161.651 59.1602 161.994 57.8042 162.664 56.7942C163.335 55.7735 164.224 55.0536 165.339 54.6421C166.454 54.223 167.721 54.0167 169.14 54.0167C170.571 54.0167 171.841 54.223 172.945 54.6421C174.06 55.0536 174.949 55.7724 175.623 56.7942C176.301 57.8042 176.629 59.1591 176.629 60.8568ZM150.625 57.8343V65.491H151.546C152.227 65.491 152.726 65.3739 153.038 65.1256C153.346 64.885 153.542 64.5078 153.635 63.991C153.721 63.4785 153.759 62.7092 153.759 61.6841C153.759 60.6505 153.721 59.879 153.635 59.3611C153.542 58.8454 153.346 58.4596 153.038 58.2071C152.719 57.9622 152.227 57.8343 151.546 57.8343H150.625ZM150.625 77.8946H144.699V54.4863H151.939C154.505 54.4863 156.438 54.8516 157.736 55.5715C159.03 56.2967 159.682 57.6065 159.682 59.5094V63.7858C159.682 65.4448 159.008 66.6976 157.674 67.555C156.332 68.421 154.703 68.8519 152.796 68.8519H150.621V77.8957L150.625 77.8946Z" fill="#E20613"/>
<path d="M103.112 93.2746H100.02V85.6641H102.991C104.386 85.6641 105.294 86.4753 105.294 87.7163C105.294 88.4835 104.94 89.039 104.266 89.371C105.018 89.7235 105.412 90.2671 105.412 91.1332C105.415 92.4505 104.539 93.2746 103.112 93.2746ZM102.896 86.701H101.183V88.88H102.897C103.67 88.88 104.142 88.4717 104.142 87.7883C104.142 87.105 103.67 86.701 102.898 86.701H102.896ZM102.994 89.9169H101.183V92.2377H102.994C103.766 92.2377 104.25 91.7864 104.25 91.0708C104.25 90.3638 103.766 89.9169 102.994 89.9169ZM116.491 93.2735L114.347 89.5215L113.056 91.059V93.2735H111.898V85.6641H113.056V89.4892L116.167 85.6641H117.594L115.118 88.6425L117.852 93.2735H116.491ZM124.453 93.2735L123.918 91.7435H120.906L120.367 93.2735H119.142L121.942 85.6641H122.874L125.661 93.2735H124.453ZM122.437 87.3854L121.237 90.7635H123.607L122.437 87.3854ZM135.504 93.2735L133.52 89.6493L132.491 90.9967V93.2746H131.333V90.9967L130.303 89.6493L128.327 93.2735H126.967L129.543 88.7328L127.235 85.6641H128.631L131.333 89.4677V85.6641H132.491V89.4677L135.197 85.6641H136.588L134.285 88.7328L136.869 93.2735H135.504ZM144.144 95.0915V93.2746H139.508V95.0926H138.382V92.2377H139.146C139.801 90.6561 140.046 89.2539 140.046 86.124V85.6641H144.382V92.2377H145.283V95.0904L144.144 95.0915ZM143.224 86.6999H141.165V87.0738C141.165 89.703 140.876 90.814 140.338 92.2366H143.224V86.6999ZM152.226 92.5235C151.7 93.0565 151.014 93.3358 150.211 93.3358C149.415 93.3358 148.729 93.0565 148.203 92.5235C147.45 91.766 147.462 90.6937 147.462 89.5215V89.1132C147.462 87.8625 147.559 87.0502 148.203 86.4098C148.466 86.1478 148.779 85.941 149.124 85.8015C149.469 85.662 149.838 85.5927 150.211 85.5975C151.005 85.5975 151.704 85.8855 152.226 86.4098C152.815 87.0072 152.967 87.855 152.967 88.9348V89.472C152.967 90.7721 152.979 91.7542 152.226 92.5235ZM151.345 87.105C151.197 86.9533 151.02 86.8333 150.824 86.7523C150.629 86.6714 150.418 86.6312 150.206 86.6344C149.995 86.6318 149.784 86.6723 149.589 86.7532C149.393 86.8341 149.216 86.9538 149.069 87.105C148.616 87.5745 148.628 88.3675 148.628 89.4162C148.628 90.3875 148.573 91.3395 149.069 91.8337C149.216 91.9848 149.393 92.1043 149.589 92.1848C149.785 92.2654 149.995 92.3053 150.206 92.3022C150.659 92.3022 151.053 92.1432 151.345 91.8326C151.797 91.362 151.797 90.6862 151.797 89.3968C151.797 88.2396 151.774 87.5552 151.345 87.105ZM161.349 93.2735V88.1848L159.587 91.895H158.728L156.939 88.1848V93.2735H155.777V85.6641H156.928L159.158 90.3993L161.361 85.6641H162.514V93.2735H161.349ZM174.343 95.0915V93.2746H169.707V95.0926H168.58V92.2377H169.345C169.999 90.6561 170.245 89.2539 170.245 86.124V85.6641H174.58V92.2377H175.481V95.0904L174.343 95.0915ZM173.419 86.6999H171.36V87.0738C171.36 89.703 171.072 90.814 170.534 92.2366H173.419V86.6999ZM182.421 92.5235C181.894 93.0565 181.209 93.3358 180.405 93.3358C179.609 93.3358 178.924 93.0565 178.397 92.5235C177.645 91.766 177.657 90.6937 177.657 89.5215V89.1132C177.657 87.8625 177.755 87.0502 178.397 86.4098C178.661 86.1478 178.974 85.941 179.319 85.8015C179.664 85.662 180.033 85.5927 180.405 85.5975C180.779 85.5918 181.149 85.6607 181.495 85.8002C181.842 85.9397 182.156 86.147 182.421 86.4098C183.009 87.0072 183.161 87.855 183.161 88.9348V89.472C183.161 90.7721 183.173 91.7542 182.421 92.5235ZM181.544 87.105C181.396 86.9534 181.219 86.8334 181.023 86.7525C180.828 86.6716 180.617 86.6314 180.405 86.6344C179.976 86.6344 179.567 86.7955 179.266 87.105C178.815 87.5745 178.826 88.3675 178.826 89.4162C178.826 90.3875 178.772 91.3395 179.266 91.8337C179.579 92.1432 179.964 92.3022 180.405 92.3022C180.617 92.3076 180.828 92.2686 181.025 92.1877C181.221 92.1068 181.398 91.9859 181.544 91.8326C181.996 91.362 181.996 90.6862 181.996 89.3968C181.991 88.2396 181.972 87.5552 181.544 87.105ZM191.543 93.2735V88.1848L189.786 91.895H188.927L187.134 88.1848V93.2735H185.976V85.6641H187.122L189.356 90.3993L191.555 85.6641H192.713V93.2735H191.543ZM195.797 93.2735V85.6641H200.691V86.701H196.956V88.923H200.129V89.948H196.956V92.2366H200.691V93.2735H195.797Z" fill="#868686"/>
</g>
</g>
<defs>
<clipPath id="clip0_602_47750">
<rect width="234" height="101" fill="white" transform="translate(0.25)"/>
</clipPath>
</defs>
</svg>
