<svg width="220" height="97" viewBox="0 0 220 97" fill="none" xmlns="http://www.w3.org/2000/svg">
<path d="M1.91479 9.46845C1.91479 6.48648 4.31758 4.06148 7.28262 4.06148H112.443C115.41 4.06148 117.809 6.48648 117.809 9.46845V88.7049C117.809 91.6963 115.41 94.1119 112.443 94.1119H7.28418C4.31913 94.1119 1.91635 91.6963 1.91635 88.7049V9.46845H1.91479Z" fill="#0099FF"/>
<mask id="mask0_602_47787" style="mask-type:luminance" maskUnits="userSpaceOnUse" x="1" y="4" width="117" height="91">
<path d="M1.91479 9.46845C1.91479 6.48648 4.31758 4.06148 7.28262 4.06148H112.443C115.41 4.06148 117.809 6.48648 117.809 9.46845V88.7049C117.809 91.6963 115.41 94.1119 112.443 94.1119H7.28418C4.31913 94.1119 1.91635 91.6963 1.91635 88.7049V9.46845H1.91479Z" fill="white"/>
</mask>
<g mask="url(#mask0_602_47787)">
<path fill-rule="evenodd" clip-rule="evenodd" d="M1.91479 4.06148H117.809V94.4467H1.91479V4.06148Z" fill="#008BDC"/>
</g>
<mask id="mask1_602_47787" style="mask-type:luminance" maskUnits="userSpaceOnUse" x="1" y="4" width="117" height="91">
<path d="M1.91479 9.46845C1.91479 6.48648 4.31758 4.06148 7.28262 4.06148H112.443C115.41 4.06148 117.809 6.48648 117.809 9.46845V88.7049C117.809 91.6963 115.41 94.1119 112.443 94.1119H7.28418C4.31913 94.1119 1.91635 91.6963 1.91635 88.7049V9.46845H1.91479Z" fill="white"/>
</mask>
<g mask="url(#mask1_602_47787)">
<path d="M38.994 84.8844H32.3122L25.3244 67.8797L18.9051 76.4407V84.8844H12.9299V51.4851H18.9051V69.0311C19.6708 67.839 20.2175 67.0098 20.5561 66.5592L31.5667 51.4851H37.6101L29.7448 62.4696L38.994 84.8844ZM54.4871 85.3991C50.0854 85.3991 46.6544 83.7298 44.2003 80.4083C41.7463 77.0759 40.5286 72.9628 40.5286 68.0737C40.5286 63.2111 41.8302 59.145 44.4333 55.8798C47.0442 52.6069 50.4861 50.9688 54.7558 50.9688C59.0628 50.9688 62.4643 52.6069 64.9665 55.8798C67.4718 59.145 68.7283 63.2362 68.7283 68.1441C68.7283 73.3007 67.4237 77.467 64.8267 80.6336C62.2267 83.8174 58.7833 85.3991 54.4871 85.3991ZM54.5384 80.546C56.6927 80.546 58.5083 79.6542 60.001 77.8628C61.492 76.0621 62.2407 72.8157 62.2407 68.0956C62.2407 64.2656 61.6194 61.2555 60.3908 59.0855C59.1653 56.9046 57.2487 55.8157 54.6626 55.8157C49.5387 55.8157 46.9883 59.971 46.9883 68.2692C46.9883 72.2947 47.6313 75.3565 48.9422 77.4279C50.2438 79.5087 52.1061 80.546 54.5384 80.546ZM106.799 84.8844H100.707V55.6451L91.5307 84.8828H88.3964L79.1627 55.6451V84.8828H74.2779V51.4851H83.6297L90.5786 72.9862L97.408 51.4851H106.799V84.8844ZM54.4871 47.2155C50.0854 47.2155 46.6544 45.5399 44.2003 42.2169C41.7463 38.8845 40.5286 34.7776 40.5286 29.8838C40.5286 25.0244 41.8302 20.9551 44.4333 17.69C47.0442 14.4186 50.4861 12.7805 54.7558 12.7805C59.0628 12.7805 62.4643 14.417 64.9665 17.69C67.4718 20.9567 68.7283 25.0479 68.7283 29.962C68.7283 35.1124 67.4237 39.2772 64.8267 42.4531C62.2267 45.626 58.7833 47.2155 54.4871 47.2155ZM54.5384 42.3608C56.6927 42.3608 58.5083 41.4691 60.001 39.673C61.492 37.8769 62.2407 34.6274 62.2407 29.912C62.2407 26.0758 61.6194 23.0688 60.3908 20.8988C59.1653 18.7179 57.2487 17.6368 54.6626 17.6368C49.5387 17.6368 46.9883 21.7828 46.9883 30.0872C46.9883 34.1127 47.6313 37.1682 48.9422 39.2475C50.2438 41.3251 52.1061 42.3608 54.5384 42.3608ZM106.799 46.693H100.707V17.4584L91.5307 46.693H88.3964L79.1627 17.4584V46.693H74.2779V13.3H83.6297L90.5786 34.8011L97.408 13.3H106.799V46.693ZM12.9299 46.693V13.3C29.8877 13.3 36.2915 15.4731 36.2915 30.1169C36.2915 44.7577 30.2511 46.693 12.9299 46.693ZM18.9051 18.1515V41.685C28.0099 41.8696 30.582 37.7205 30.582 29.9135C30.582 22.1066 27.8856 17.9059 18.9051 18.1515Z" fill="white"/>
</g>
<path d="M1.91479 9.46845C1.91479 6.48648 4.31758 4.06148 7.28262 4.06148H112.443C115.41 4.06148 117.809 6.48648 117.809 9.46845V88.7049C117.809 91.6963 115.41 94.1119 112.443 94.1119H7.28418C4.31913 94.1119 1.91635 91.6963 1.91635 88.7049V9.46845H1.91479Z" stroke="#008BDC" stroke-width="0.25"/>
<path d="M128.137 27.8672V23.1126C128.137 21.4448 128.352 20.1416 128.776 19.206C129.607 17.4224 131.201 16.5307 133.548 16.5307C135.753 16.5307 137.285 17.3286 138.15 18.9322C138.697 19.9507 138.972 21.3447 138.972 23.1126V27.8672C138.972 29.5193 138.749 30.8131 138.319 31.7503C137.494 33.5479 135.904 34.4522 133.548 34.4522C131.712 34.4522 130.35 33.914 129.465 32.8345C128.576 31.7612 128.137 30.1044 128.137 27.8672ZM135.289 27.4447V23.5381C135.289 22.2349 135.219 21.3509 135.067 20.8847C134.837 20.1478 134.326 19.7833 133.546 19.7833C132.77 19.7833 132.263 20.14 132.032 20.8581C131.883 21.329 131.81 22.2208 131.81 23.5381V27.4447C131.81 28.7433 131.883 29.6288 132.032 30.0966C132.262 30.8303 132.77 31.198 133.546 31.198C134.326 31.198 134.835 30.8382 135.067 30.1216C135.219 29.6554 135.289 28.7589 135.289 27.4447ZM140.831 33.3743V17.6039C140.831 17.3051 140.863 17.1048 140.93 17.0032C141.061 16.8201 141.318 16.7278 141.697 16.7278H143.639C144.018 16.7278 144.26 16.7982 144.355 16.9421C144.457 17.0814 144.507 17.302 144.507 17.6008V22.9874C144.507 23.2205 144.625 23.3379 144.857 23.3379H146.049C146.428 23.3379 146.731 23.2205 146.941 22.9874C147.224 22.6902 147.365 22.1958 147.365 21.5183V19.6722C147.365 18.7273 147.61 17.9966 148.1 17.4882C148.587 16.9844 149.223 16.7294 150.002 16.7294H151.664C151.88 16.7294 152.065 16.7919 152.211 16.9202C152.36 17.0438 152.433 17.2238 152.433 17.4553V19.0339C152.433 19.2858 152.376 19.4532 152.251 19.533C152.124 19.6206 152.003 19.6566 151.888 19.6566H151.394C151.175 19.6566 151.037 19.7536 150.961 19.9491C150.888 20.14 150.849 20.3512 150.849 20.5843V22.637C150.849 23.1861 150.731 23.6211 150.502 23.9402C150.184 24.2078 149.881 24.4643 149.58 24.7162V24.8163C150.207 25.1136 150.714 25.5 151.094 25.9678C151.476 26.4341 151.667 27.1271 151.667 28.0439V33.3758C151.667 33.6793 151.635 33.8765 151.568 33.9766C151.437 34.1596 151.177 34.2519 150.798 34.2519H148.862C148.483 34.2519 148.241 34.1815 148.14 34.0376C148.042 33.8952 147.991 33.6731 147.991 33.3711V29.2298C147.991 28.4257 147.833 27.8093 147.517 27.3837C147.205 26.9582 146.708 26.7438 146.025 26.7438H144.808C144.605 26.7438 144.509 26.8753 144.509 27.1428V33.3727C144.509 33.7591 144.436 34.0016 144.299 34.1018C144.156 34.2019 143.939 34.2535 143.64 34.2535H141.699C141.405 34.2535 141.205 34.2191 141.104 34.1518C140.922 34.0188 140.831 33.7576 140.831 33.3743ZM154.674 16.7278H156.61C156.992 16.7278 157.234 16.8013 157.332 16.9421C157.431 17.0845 157.481 17.3051 157.481 17.6039V22.4367C157.481 22.5838 157.5 22.7043 157.545 22.7856C157.583 22.8717 157.691 22.9108 157.851 22.9108H160.559C160.645 22.9108 160.702 22.9029 160.735 22.8857C160.884 22.8013 160.96 22.6354 160.96 22.3867V17.6039C160.96 17.3051 160.991 17.1048 161.058 17.0032C161.188 16.8201 161.449 16.7278 161.828 16.7278H163.77C164.149 16.7278 164.391 16.8013 164.489 16.9421C164.588 17.0845 164.638 17.3051 164.638 17.6039V33.3727C164.638 33.6762 164.605 33.8733 164.539 33.9735C164.408 34.1565 164.15 34.2488 163.771 34.2488H161.83C161.451 34.2488 161.212 34.1784 161.108 34.0345C161.013 33.8968 160.962 33.6746 160.962 33.3711V26.8158C160.962 26.5498 160.828 26.4168 160.561 26.4168H157.852C157.607 26.4168 157.483 26.542 157.483 26.7939V33.3743C157.483 33.7576 157.413 34.0001 157.27 34.1002C157.13 34.2003 156.912 34.2519 156.611 34.2519H154.676C154.379 34.2519 154.179 34.2175 154.075 34.1502C153.896 34.0204 153.805 33.7591 153.805 33.3743V17.6039C153.805 17.3051 153.837 17.1048 153.904 17.0032C154.033 16.8201 154.291 16.7278 154.674 16.7278ZM170.503 16.7278H173.631C173.85 16.7278 174.019 16.77 174.141 16.853C174.268 16.9374 174.37 17.1268 174.453 17.4303L178.475 33.4994C178.514 33.5995 178.527 33.7075 178.527 33.8248C178.527 34.108 178.345 34.2519 177.98 34.2519H175.545C175.296 34.2519 175.121 34.1862 175.01 34.0501C174.905 33.9187 174.825 33.7513 174.777 33.5495L174.28 31.6502C174.213 31.3983 174.047 31.2715 173.786 31.2715H170.377C170.098 31.2715 169.931 31.3983 169.88 31.6502L169.409 33.6293C169.377 33.7951 169.304 33.939 169.2 34.0658C169.091 34.1909 168.92 34.2535 168.69 34.2535H166.281C165.966 34.2535 165.808 34.0939 165.808 33.7763C165.808 33.7247 165.808 33.6793 165.808 33.6293C165.839 33.5636 165.856 33.5198 165.856 33.501L169.681 17.4318C169.748 17.1283 169.843 16.939 169.967 16.8545C170.09 16.77 170.27 16.7278 170.503 16.7278ZM171.05 27.9172H173.109C173.294 27.9172 173.351 27.7921 173.285 27.5417L172.193 23.111C172.174 23.0453 172.145 22.9906 172.104 22.9468C172.062 22.9045 172.034 22.8779 172.016 22.8591C171.918 22.9593 171.857 23.0453 171.843 23.111L170.876 27.5417C170.809 27.7936 170.863 27.9172 171.05 27.9172ZM187.148 33.4024V17.4303C187.148 17.1471 187.206 16.9578 187.324 16.8686C187.436 16.7747 187.63 16.7294 187.894 16.7294H192.69C194.593 16.7294 196.027 17.1706 196.99 18.0561C197.836 18.8446 198.257 19.874 198.257 21.1632C198.257 21.9627 198.057 22.6714 197.662 23.2878C197.264 23.9042 196.673 24.3752 195.896 24.6928V24.7898C196.839 25.1089 197.58 25.6596 198.12 26.4434C198.658 27.2304 198.928 28.1535 198.928 29.2236C198.928 30.6911 198.515 31.8614 197.684 32.7265C196.707 33.7466 195.214 34.2551 193.212 34.2551H187.894C187.397 34.2504 187.148 33.9672 187.148 33.4024ZM192.092 23.3379C192.872 23.3379 193.454 23.1752 193.837 22.8513C194.212 22.529 194.403 22.1269 194.403 21.6466C194.403 21.1835 194.254 20.8128 193.958 20.528C193.56 20.165 192.929 19.9804 192.067 19.9804H191.272C190.976 19.9804 190.826 20.0978 190.826 20.3293V23.0359C190.826 23.2346 190.982 23.3363 191.3 23.3363L192.092 23.3379ZM191.153 30.9978H192.293C193.169 30.9978 193.837 30.7912 194.282 30.3813C194.728 29.9699 194.95 29.4551 194.95 28.8325C194.95 28.2129 194.753 27.6997 194.355 27.2977C193.875 26.8299 193.184 26.5921 192.293 26.5921H191.223C191.044 26.5921 190.931 26.6343 190.889 26.7204C190.847 26.8017 190.828 26.9018 190.828 27.0192V30.6958C190.828 30.8961 190.937 30.9978 191.153 30.9978ZM128.258 56.3179V40.5476C128.258 40.2503 128.29 40.0485 128.357 39.9483C128.491 39.7653 128.745 39.673 129.127 39.673H131.066C131.448 39.673 131.684 39.7418 131.785 39.8858C131.884 40.025 131.934 40.2472 131.934 40.546V45.9326C131.934 46.1642 132.049 46.2815 132.284 46.2815H133.476C133.858 46.2815 134.157 46.1657 134.371 45.9326C134.654 45.6354 134.795 45.1425 134.795 44.4635V42.6158C134.795 41.6709 135.037 40.9418 135.53 40.4333C136.016 39.9296 136.653 39.673 137.426 39.673H139.094C139.31 39.673 139.492 39.7356 139.641 39.8639C139.79 39.9875 139.863 40.1642 139.863 40.3974V41.9775C139.863 42.2294 139.803 42.3952 139.681 42.4782C139.557 42.5627 139.433 42.6018 139.318 42.6018H138.821C138.605 42.6018 138.461 42.7003 138.388 42.8943C138.311 43.0836 138.276 43.2964 138.276 43.5295V45.5806C138.276 46.1329 138.161 46.5662 137.929 46.8838C137.614 47.1498 137.305 47.408 137.007 47.6598V47.76C137.637 48.0572 138.144 48.4421 138.524 48.9115C138.906 49.3761 139.097 50.0708 139.097 50.986V56.3179C139.097 56.6214 139.065 56.817 138.998 56.9187C138.864 57.1017 138.607 57.1956 138.228 57.1956H136.289C135.91 57.1956 135.671 57.1236 135.567 56.9812C135.469 56.8357 135.421 56.6183 135.421 56.3147V52.1735C135.421 51.3693 135.263 50.7545 134.947 50.3273C134.632 49.9002 134.132 49.6859 133.455 49.6859H132.242C132.038 49.6859 131.939 49.8189 131.939 50.0864V56.3147C131.939 56.7027 131.872 56.9421 131.726 57.0422C131.586 57.1424 131.37 57.1956 131.07 57.1956H129.132C128.832 57.1956 128.638 57.1612 128.534 57.0954C128.351 56.9625 128.258 56.7028 128.258 56.3179ZM145.105 39.673H148.236C148.452 39.673 148.622 39.7152 148.746 39.7966C148.87 39.8811 148.973 40.0719 149.058 40.3755L153.081 56.443C153.116 56.5432 153.132 56.6558 153.132 56.77C153.132 57.0532 152.947 57.1956 152.582 57.1956H150.147C149.901 57.1956 149.726 57.1314 149.616 56.9938C149.507 56.8623 149.431 56.6965 149.376 56.4931L148.886 54.5938C148.819 54.3419 148.65 54.2167 148.385 54.2167H144.979C144.7 54.2167 144.534 54.3419 144.485 54.5938L144.015 56.5698C143.982 56.7387 143.909 56.8795 143.802 57.0094C143.693 57.1346 143.522 57.1956 143.293 57.1956H140.884C140.565 57.1956 140.41 57.036 140.41 56.7153C140.41 56.6668 140.41 56.6214 140.41 56.5682C140.442 56.5041 140.461 56.4634 140.461 56.4415L144.287 40.3739C144.35 40.0719 144.448 39.8811 144.569 39.795C144.697 39.7152 144.875 39.673 145.105 39.673ZM145.652 50.8624H147.715C147.899 50.8624 147.954 50.7373 147.887 50.4854L146.795 46.0562C146.779 45.9905 146.75 45.9357 146.71 45.8935C146.668 45.8513 146.637 45.8231 146.621 45.8043C146.522 45.9029 146.46 45.9889 146.449 46.0547L145.478 50.4838C145.413 50.7373 145.47 50.8624 145.652 50.8624ZM164.315 57.1956H162.374C161.995 57.1956 161.755 57.1236 161.654 56.9812C161.555 56.8357 161.505 56.6183 161.505 56.3147V50.138C161.505 49.8377 161.353 49.6859 161.056 49.6859H160.235C159.789 49.6859 159.41 49.8111 159.095 50.0614C158.601 50.4462 158.349 51.0736 158.349 51.9466V56.3147C158.349 56.6167 158.318 56.817 158.251 56.9187C158.121 57.1017 157.86 57.1956 157.481 57.1956H155.539C155.164 57.1956 154.921 57.1236 154.82 56.9812C154.722 56.842 154.674 56.623 154.674 56.3179V50.986C154.674 50.221 154.837 49.5717 155.168 49.0351C155.369 48.7159 155.633 48.4343 155.963 48.184C156.212 48.0338 156.397 47.9242 156.51 47.8601C156.628 47.7928 156.686 47.7443 156.686 47.7068C156.686 47.6583 156.647 47.6067 156.574 47.5566C156.501 47.505 156.412 47.4658 156.313 47.433C155.998 47.2656 155.766 47.009 155.619 46.6679C155.466 46.3284 155.392 45.9639 155.392 45.579V43.528C155.392 43.093 155.344 42.8333 155.249 42.741C155.147 42.6471 154.979 42.6018 154.749 42.6018H154.522C154.213 42.6018 154.013 42.5251 153.93 42.3655C153.845 42.2059 153.806 41.9947 153.806 41.7256V40.3989C153.806 40.1815 153.854 40.0266 153.955 39.9264C154.118 39.7606 154.41 39.6746 154.823 39.6746H156.341C156.972 39.6746 157.478 39.806 157.855 40.0735C158.52 40.5382 158.851 41.3861 158.851 42.6158V44.2382C158.851 44.886 158.918 45.3506 159.051 45.6354C159.248 46.0656 159.624 46.2815 160.168 46.2815H161.063C161.359 46.2815 161.511 46.1344 161.511 45.8325V40.5476C161.511 40.2487 161.544 40.0516 161.611 39.9515C161.744 39.7684 161.999 39.6761 162.378 39.6761H164.32C164.699 39.6761 164.938 39.745 165.039 39.8889C165.138 40.0281 165.188 40.2503 165.188 40.5491V45.8341C165.188 46.136 165.334 46.2831 165.637 46.2831H166.528C167.063 46.2831 167.426 46.0781 167.623 45.6604C167.772 45.3459 167.845 44.8734 167.845 44.2414V42.619C167.845 41.3893 168.17 40.5397 168.816 40.0766C169.183 39.8091 169.695 39.6777 170.357 39.6777H171.874C172.288 39.6777 172.559 39.7434 172.69 39.8795C172.826 40.0094 172.893 40.183 172.893 40.4005V41.7272C172.893 41.9634 172.861 42.1465 172.794 42.2779C172.679 42.4954 172.469 42.6033 172.173 42.6033H171.947C171.731 42.6033 171.592 42.6378 171.528 42.7035C171.376 42.8396 171.301 43.1149 171.301 43.5295V45.5806C171.301 45.9999 171.231 46.3723 171.088 46.6992C170.952 47.02 170.716 47.2672 170.382 47.4361C170.133 47.5362 170.009 47.6254 170.009 47.7099C170.009 47.7459 170.115 47.8194 170.321 47.9368C170.528 48.0541 170.664 48.1386 170.731 48.1871C170.929 48.3373 171.11 48.5109 171.278 48.7128C171.775 49.3292 172.024 50.0895 172.024 50.9891V56.321C172.024 56.7059 171.954 56.9453 171.811 57.0454C171.671 57.1455 171.453 57.1987 171.152 57.1987H169.214C168.917 57.1987 168.717 57.1643 168.619 57.0986C168.434 56.9672 168.342 56.7074 168.342 56.3194V51.9513C168.342 51.0642 168.106 50.4353 167.623 50.0661C167.305 49.8158 166.92 49.6906 166.455 49.6906H165.637C165.334 49.6906 165.188 49.8423 165.188 50.1427V56.3194C165.188 56.7074 165.115 56.9468 164.975 57.0469C164.831 57.1424 164.612 57.1956 164.315 57.1956ZM177.584 39.673H184.965C185.344 39.673 185.586 39.7465 185.687 39.8858C185.785 40.0297 185.836 40.2503 185.836 40.5491V53.5925C185.836 53.7599 185.845 53.8569 185.872 53.8897C185.897 53.9242 185.98 53.9383 186.133 53.9383H186.683C186.979 53.9383 187.18 53.9742 187.277 54.0399C187.456 54.1714 187.554 54.4264 187.554 54.8112V59.5251C187.554 59.9069 187.481 60.1478 187.338 60.2495C187.198 60.3449 186.981 60.3997 186.683 60.3997H184.868C184.483 60.3997 184.247 60.3293 184.143 60.1854C184.045 60.0446 183.997 59.8271 183.997 59.5283V57.5632C183.997 57.3176 183.863 57.194 183.596 57.194H177.559C177.262 57.194 177.11 57.3536 177.11 57.6665V59.5283C177.11 59.9069 177.04 60.1478 176.897 60.2495C176.758 60.3449 176.54 60.3997 176.239 60.3997H174.425C174.046 60.3997 173.803 60.3293 173.709 60.1822C173.603 60.0446 173.553 59.824 173.553 59.5251V54.8112C173.553 54.4264 173.626 54.187 173.766 54.0916C173.909 53.9899 174.127 53.9367 174.425 53.9367H174.65C174.898 53.9367 175.114 53.6692 175.296 53.1372C175.378 52.9041 175.481 52.4801 175.593 51.8606C175.978 50.0598 176.257 48.2309 176.439 46.3785C176.57 44.9955 176.64 43.6609 176.64 42.3733L176.713 40.3942C176.713 40.0453 176.779 39.8357 176.91 39.7716C177.047 39.7074 177.267 39.673 177.584 39.673ZM182.155 53.5925V43.2291C182.155 43.0289 182.057 42.9272 181.858 42.9272H180.614C180.398 42.9272 180.29 43.0289 180.29 43.2291L180.168 44.7796C180.168 47.3469 180.019 49.1274 179.723 50.113C179.373 51.2598 179.101 52.4128 178.901 53.5643V53.7662C178.934 53.8819 179.05 53.9383 179.251 53.9383H181.81C182.04 53.9398 182.155 53.8225 182.155 53.5925ZM189.039 56.3179V40.5476C189.039 40.2503 189.071 40.0485 189.137 39.9483C189.27 39.7653 189.528 39.673 189.907 39.673H191.848C192.227 39.673 192.47 39.7465 192.564 39.8858C192.667 40.0297 192.717 40.2503 192.717 40.5491V45.6307C192.717 45.8325 192.816 45.9326 193.016 45.9326H194.855C196.694 45.9326 198.12 46.4552 199.13 47.5065C200.142 48.5579 200.644 49.9785 200.644 51.762C200.644 53.8991 199.922 55.4105 198.484 56.296C197.485 56.8983 196.169 57.1956 194.531 57.1956H189.907C189.528 57.1956 189.286 57.1236 189.188 56.9812C189.087 56.842 189.039 56.6214 189.039 56.3179ZM192.715 49.5404V53.4141C192.715 53.6488 192.824 53.7677 193.04 53.7677H194.657C195.236 53.7677 195.71 53.5315 196.082 53.0621C196.455 52.5943 196.64 52.0452 196.64 51.4241C196.64 50.803 196.437 50.2773 196.022 49.8377C195.606 49.4043 195.048 49.1868 194.357 49.1868H193.065C192.833 49.1852 192.715 49.3026 192.715 49.5404ZM201.64 56.3179V40.5476C201.64 40.2503 201.671 40.0485 201.735 39.9483C201.868 39.7653 202.126 39.673 202.508 39.673H204.446C204.743 39.673 204.94 39.7074 205.041 39.7747C205.223 39.9045 205.318 40.1642 205.318 40.5491V56.3194C205.318 56.7043 205.245 56.9437 205.105 57.0438C204.962 57.1439 204.745 57.1971 204.446 57.1971H202.508C202.208 57.1971 202.011 57.1627 201.91 57.097C201.727 56.9625 201.64 56.7028 201.64 56.3179ZM210.275 57.1956H208.407C208.115 57.1956 207.919 57.1612 207.818 57.0954C207.643 56.964 207.551 56.7043 207.551 56.3194V40.5491C207.551 40.2519 207.584 40.05 207.651 39.9499C207.781 39.7669 208.042 39.6746 208.421 39.6746H210.356C210.735 39.6746 210.978 39.7481 211.079 39.8873C211.178 40.0313 211.228 40.2519 211.228 40.5507V48.7394L214.534 40.5507C214.683 40.1815 214.823 39.9468 214.948 39.8373C215.069 39.7293 215.26 39.6746 215.505 39.6746H217.535C217.92 39.6746 218.163 39.7481 218.26 39.8873C218.36 40.0313 218.41 40.2519 218.41 40.5507V56.321C218.41 56.6245 218.377 56.8201 218.31 56.9218C218.18 57.1048 217.922 57.1987 217.54 57.1987H215.604C215.222 57.1987 214.983 57.1267 214.885 56.9844C214.786 56.8451 214.733 56.6261 214.733 56.321V47.7349L211.405 56.321C211.271 56.6887 211.119 56.9265 210.946 57.036C210.777 57.1393 210.552 57.1956 210.275 57.1956ZM215.081 38.5199H210.855C210.358 38.5199 209.963 38.3494 209.674 38.0083C209.382 37.6673 209.238 37.2934 209.238 36.896V36.5424C209.238 36.4595 209.26 36.3797 209.289 36.3062C209.32 36.2326 209.404 36.1919 209.541 36.1919H211.052C211.285 36.1919 211.405 36.3093 211.405 36.5424C211.405 36.8616 211.684 37.018 212.248 37.018H213.689C214.253 37.018 214.536 36.86 214.536 36.5424C214.536 36.3093 214.651 36.1919 214.885 36.1919H216.4C216.515 36.1919 216.588 36.2311 216.625 36.3062C216.656 36.3797 216.682 36.461 216.698 36.5424V36.896C216.698 37.2949 216.558 37.6673 216.277 38.0083C215.991 38.3494 215.594 38.5199 215.081 38.5199ZM131.46 62.6166H138.844C139.223 62.6166 139.462 62.6902 139.563 62.8294C139.661 62.9733 139.716 63.1939 139.716 63.4927V76.5345C139.716 76.702 139.725 76.8005 139.751 76.8349C139.773 76.8694 139.86 76.8834 140.012 76.8834H140.559C140.856 76.8834 141.056 76.9179 141.154 76.9851C141.339 77.115 141.43 77.3716 141.43 77.7549V82.4688C141.43 82.8521 141.357 83.0914 141.218 83.1931C141.075 83.2901 140.857 83.3418 140.559 83.3418H138.745C138.366 83.3418 138.124 83.2729 138.026 83.1321C137.926 82.9882 137.873 82.7723 137.873 82.4719V80.51C137.873 80.2644 137.743 80.1392 137.473 80.1392H131.439C131.139 80.1392 130.99 80.2988 130.99 80.6132V82.4735C130.99 82.8536 130.92 83.093 130.777 83.1947C130.634 83.2917 130.42 83.3433 130.118 83.3433H128.304C127.925 83.3433 127.686 83.2745 127.585 83.129C127.486 82.9897 127.436 82.7676 127.436 82.4703V77.7564C127.436 77.3731 127.506 77.1338 127.649 77.0368C127.786 76.9366 128.009 76.8834 128.304 76.8834H128.529C128.775 76.8834 128.997 76.6159 129.176 76.0824C129.261 75.8493 129.36 75.4253 129.475 74.8058C129.854 73.0066 130.137 71.1761 130.319 69.3268C130.452 67.9407 130.516 66.6061 130.516 65.3185L130.592 63.341C130.592 62.9905 130.659 62.7825 130.792 62.7152C130.928 62.6526 131.145 62.6166 131.46 62.6166ZM136.039 76.5345V66.1728C136.039 65.9709 135.937 65.8708 135.739 65.8708H134.495C134.279 65.8708 134.174 65.9709 134.174 66.1728L134.05 67.7232C134.05 70.2937 133.897 72.0726 133.604 73.0566C133.254 74.205 132.982 75.358 132.785 76.5095V76.7098C132.818 76.8271 132.934 76.8834 133.128 76.8834H135.691C135.916 76.885 136.039 76.7677 136.039 76.5345ZM142.549 73.756V68.9999C142.549 67.3336 142.761 66.032 143.189 65.0948C144.019 63.3113 145.613 62.4211 147.96 62.4211C150.165 62.4211 151.697 63.2174 152.556 64.8195C153.107 65.8395 153.377 67.2319 153.377 68.9999V73.756C153.377 75.4081 153.162 76.7035 152.731 77.636C151.907 79.4352 150.313 80.341 147.96 80.341C146.124 80.341 144.762 79.8013 143.873 78.7233C142.988 77.6485 142.549 75.9932 142.549 73.756ZM149.701 73.332V69.427C149.701 68.1221 149.625 67.2398 149.476 66.7735C149.243 66.0366 148.738 65.6737 147.958 65.6737C147.179 65.6737 146.675 66.032 146.444 66.7485C146.295 67.2194 146.219 68.1096 146.219 69.4285V73.3336C146.219 74.6321 146.295 75.5176 146.444 75.9854C146.674 76.7207 147.179 77.0868 147.958 77.0868C148.738 77.0868 149.241 76.727 149.476 76.0104C149.626 75.5426 149.701 74.6477 149.701 73.332ZM158.921 70.0762V79.2631C158.921 79.6464 158.851 79.8873 158.711 79.9859C158.571 80.0876 158.354 80.1392 158.053 80.1392H156.111C155.814 80.1392 155.617 80.1048 155.516 80.0391C155.334 79.9077 155.246 79.6479 155.246 79.2646V63.4943C155.246 63.1971 155.274 62.9952 155.344 62.8935C155.477 62.7105 155.732 62.6182 156.111 62.6182H158.326C158.574 62.6182 158.79 62.7027 158.972 62.8701C159.071 62.9499 159.154 63.0672 159.217 63.2174L161.904 68.6244C161.936 68.7104 161.977 68.798 162.041 68.9013C162.096 68.9998 162.15 69.0515 162.2 69.0515C162.266 69.0515 162.33 68.9905 162.388 68.8622C162.445 68.7386 162.476 68.6682 162.476 68.6541L165.161 63.2909C165.289 63.0437 165.432 62.8701 165.581 62.7684C165.736 62.6682 165.905 62.6182 166.106 62.6182H168.193C168.575 62.6182 168.812 62.6917 168.916 62.831C169.013 62.9749 169.065 63.1955 169.065 63.4943V79.2646C169.065 79.6479 168.992 79.8889 168.849 79.9874C168.709 80.0891 168.492 80.1408 168.193 80.1408H166.255C165.873 80.1408 165.637 80.0719 165.533 79.928C165.433 79.7872 165.384 79.565 165.384 79.2646V70.3516C165.351 70.2546 165.317 70.2045 165.284 70.2045L165.208 70.2546L163.273 74.9575C163.173 75.2266 163.072 75.4018 162.976 75.4863C162.877 75.5692 162.749 75.6099 162.6 75.6099H161.757C161.477 75.6099 161.251 75.394 161.086 74.9575L159.096 70.0512C159.033 70.0653 158.972 70.0762 158.921 70.0762Z" fill="#0D0D0D"/>
</svg>
