<svg width="48" height="48" viewBox="0 0 48 48" fill="none" xmlns="http://www.w3.org/2000/svg">
<g clip-path="url(#clip0_641_41015)">
<path d="M47.4533 44.8142L35.739 33.1002C38.6508 29.5986 40.405 25.1023 40.405 20.2031C40.405 9.06308 31.3422 0 20.2026 0C9.06283 0 0 9.06308 0 20.2031C0 31.3424 9.06283 40.4048 20.2026 40.4048C25.1016 40.4048 29.5981 38.6508 33.0997 35.739L44.8142 47.4533C45.1785 47.8179 45.6563 48 46.1338 48C46.6113 48 47.089 47.8179 47.4536 47.4533C48.1824 46.7245 48.1824 45.5431 47.4533 44.8142ZM3.73243 20.2031C3.73243 11.1211 11.1209 3.73243 20.2026 3.73243C29.2841 3.73243 36.6723 11.1211 36.6723 20.2031C36.6723 29.2844 29.2841 36.6723 20.2026 36.6723C11.1209 36.6723 3.73243 29.2844 3.73243 20.2031Z" fill="#C5C5C5"/>
<g clip-path="url(#clip1_641_41015)">
<path d="M22.493 20.2503L28.0359 14.7073C28.6579 14.0886 28.6579 13.0863 28.0424 12.4644C27.4236 11.8424 26.4214 11.8424 25.7994 12.4579L25.7962 12.4611L20.2532 18.0041L14.707 12.4644C14.0883 11.8456 13.0828 11.8456 12.4641 12.4644C11.8453 13.0831 11.8453 14.0886 12.4641 14.7073L18.007 20.2503L12.4641 25.7933C11.8453 26.412 11.8453 27.4175 12.4641 28.0362C13.0828 28.655 14.0883 28.655 14.707 28.0362L20.25 22.4933L25.793 28.0362C26.4117 28.655 27.4172 28.655 28.0359 28.0362C28.6547 27.4175 28.6547 26.412 28.0359 25.7933L22.493 20.2503Z" fill="#C5C5C5"/>
</g>
</g>
<defs>
<clipPath id="clip0_641_41015">
<rect width="48" height="48" fill="white"/>
</clipPath>
<clipPath id="clip1_641_41015">
<rect width="16.5" height="16.5" fill="white" transform="translate(12 12)"/>
</clipPath>
</defs>
</svg>
