<svg width="221" height="59" viewBox="0 0 221 59" fill="none" xmlns="http://www.w3.org/2000/svg">
<g clip-path="url(#clip0_602_47731)">
<mask id="mask0_602_47731" style="mask-type:luminance" maskUnits="userSpaceOnUse" x="0" y="0" width="221" height="59">
<path d="M220.021 0H0V59H220.021V0Z" fill="white"/>
</mask>
<g mask="url(#mask0_602_47731)">
<path d="M92.0418 11.5655C92.1709 11.5583 92.3005 11.5637 92.4282 11.5819C92.5758 11.6002 92.7123 11.6672 92.8147 11.7716C92.9221 11.8684 92.9913 11.9985 93.0103 12.1394C93.0316 12.275 93.0381 12.4124 93.0296 12.5494V28.449H94.4789V12.6782C94.4774 12.473 94.4628 12.268 94.4353 12.0645C94.412 11.8521 94.3609 11.6435 94.2832 11.4436C94.1938 11.2296 94.0644 11.0334 93.9016 10.865C93.7579 10.7149 93.5857 10.5932 93.3943 10.5066C93.2236 10.4299 93.0422 10.3778 92.8558 10.352C92.6804 10.3295 92.5037 10.3193 92.3269 10.3215H81.8162C81.6408 10.3191 81.4656 10.3293 81.2921 10.352C81.1039 10.3767 80.9206 10.4288 80.7487 10.5066C80.5569 10.5926 80.3845 10.7144 80.2414 10.865C80.0776 11.0326 79.948 11.229 79.8598 11.4436C79.7795 11.6429 79.7266 11.8517 79.7029 12.0645C79.681 12.2683 79.6721 12.4733 79.6763 12.6782V28.449H81.1254V12.5494C81.1199 12.4125 81.1256 12.2754 81.1422 12.1394C81.1645 11.9994 81.2333 11.8703 81.3379 11.7716C81.4417 11.6675 81.5787 11.6006 81.7268 11.5819C81.8547 11.5637 81.984 11.5582 82.1132 11.5655H92.0418Z" fill="#595959"/>
<path d="M95.5391 28.4496H97.0919L104.135 11.9478C104.166 11.8658 104.202 11.7815 104.236 11.6901C104.271 11.601 104.326 11.5208 104.398 11.4559C104.483 11.3911 104.588 11.3559 104.696 11.3559C104.804 11.3559 104.909 11.3911 104.994 11.4559C105.065 11.5216 105.119 11.6016 105.154 11.6901C105.19 11.7815 105.226 11.8658 105.255 11.9478L112.307 28.4496H113.855L106.591 11.6948C106.447 11.3315 106.252 10.9887 106.014 10.6758C105.854 10.4697 105.642 10.3081 105.398 10.2072C104.94 10.0698 104.45 10.0698 103.992 10.2072C103.749 10.3088 103.537 10.4703 103.379 10.6758C103.139 10.9881 102.945 11.331 102.801 11.6948L95.5391 28.4496Z" fill="#595959"/>
<path d="M113.85 28.449H115.398L117.666 23.1664H128.505L130.776 28.449H132.324L125.168 12.0316C125.034 11.7069 124.872 11.3934 124.685 11.0946C124.516 10.8205 124.292 10.5816 124.028 10.3918C123.753 10.2009 123.421 10.1015 123.083 10.1083C122.747 10.1023 122.418 10.199 122.141 10.3847C121.874 10.5729 121.65 10.812 121.482 11.0875C121.294 11.3859 121.132 11.6994 120.999 12.0246L113.85 28.449ZM122.303 12.4439C122.356 12.3151 122.419 12.1722 122.489 12.0129C122.557 11.864 122.644 11.7239 122.748 11.5959C122.78 11.5388 122.828 11.4912 122.886 11.458C122.944 11.4248 123.01 11.4074 123.077 11.4074C123.145 11.4074 123.211 11.4248 123.269 11.458C123.327 11.4912 123.374 11.5388 123.407 11.5959C123.509 11.7245 123.595 11.8645 123.663 12.0129C123.735 12.1722 123.798 12.3151 123.851 12.4439L127.935 21.9224H118.226L122.313 12.4439H122.303Z" fill="#595959"/>
<path d="M148.05 28.4488V27.2049H140.804C140.121 27.209 139.439 27.1304 138.776 26.9707C138.255 26.8497 137.754 26.6615 137.286 26.4108C136.914 26.2131 136.568 25.9724 136.257 25.6939C136.023 25.4803 135.811 25.2449 135.624 24.9912C135.259 24.4925 134.982 23.9383 134.805 23.3512C134.635 22.7634 134.525 22.1608 134.477 21.5521C134.424 20.9267 134.402 20.3011 134.407 19.6779C134.407 18.9963 134.424 18.2981 134.482 17.5813C134.536 16.8739 134.665 16.1738 134.866 15.4916C135.056 14.8341 135.371 14.2168 135.795 13.6714C136.156 13.2174 136.597 12.8288 137.097 12.5235C137.554 12.2492 138.047 12.0372 138.563 11.8933C139.033 11.762 139.514 11.6726 140 11.6262C140.401 11.5892 140.805 11.572 141.208 11.5747H147.748V10.3214H140.599C139.854 10.3163 139.112 10.4021 138.389 10.5767C137.811 10.7128 137.251 10.9158 136.723 11.1811C136.31 11.3832 135.919 11.6258 135.556 11.905C135.306 12.0938 135.071 12.3005 134.853 12.5235C134.412 12.986 134.048 13.5134 133.776 14.086C133.506 14.6556 133.303 15.2528 133.17 15.8665C133.036 16.4897 132.949 17.1215 132.909 17.757C132.868 18.3965 132.847 19.0267 132.851 19.6311C132.841 20.5564 132.902 21.4811 133.032 22.3978C133.144 23.1656 133.363 23.9151 133.682 24.6256C133.985 25.2827 134.409 25.8804 134.933 26.3897C135.179 26.6295 135.444 26.8503 135.725 27.0503C136.091 27.308 136.482 27.5308 136.892 27.7156C137.399 27.9404 137.929 28.1125 138.474 28.2287C139.143 28.3702 139.827 28.4402 140.512 28.4372L148.05 28.4488Z" fill="#595959"/>
<path d="M157.844 28.4486V11.5651H165.667V10.3212H148.579V11.5651H156.402V28.4486H157.844Z" fill="#595959"/>
<path d="M182.699 28.45V12.3675C182.703 12.2292 182.698 12.0907 182.685 11.9529C182.674 11.7586 182.645 11.5658 182.598 11.3766C182.546 11.165 182.461 10.9626 182.344 10.7769C182.232 10.5836 182.07 10.4221 181.873 10.3083C181.635 10.1767 181.365 10.1111 181.091 10.1186C180.752 10.1076 180.418 10.1887 180.125 10.3528C179.85 10.5294 179.613 10.7562 179.427 11.0205C179.217 11.311 178.994 11.6436 178.75 12.0278L169.273 26.6578C169.228 26.7235 169.184 26.7913 169.136 26.8733C169.09 26.9479 169.037 27.0177 168.976 27.0818C168.921 27.1373 168.846 27.1707 168.766 27.1756C168.715 27.1799 168.664 27.1709 168.618 27.1494C168.571 27.128 168.532 27.095 168.503 27.0537C168.458 26.9624 168.437 26.8617 168.443 26.7608C168.443 26.6438 168.443 26.5266 168.443 26.3978V10.3224H166.993V26.5594C166.992 26.7669 167.005 26.9742 167.03 27.1801C167.058 27.4222 167.122 27.659 167.221 27.883C167.325 28.1082 167.492 28.3007 167.704 28.4382C167.964 28.6012 168.27 28.6829 168.58 28.6724C168.909 28.6793 169.233 28.5983 169.517 28.4382C169.769 28.288 169.987 28.0915 170.16 27.8596C170.341 27.6254 170.515 27.3628 170.689 27.0912L180.325 12.3558C180.388 12.2481 180.456 12.1356 180.53 12.0232C180.595 11.9176 180.671 11.8194 180.758 11.7303C180.787 11.6946 180.823 11.6651 180.865 11.6437C180.906 11.6223 180.952 11.6096 180.999 11.6062C181.037 11.6053 181.074 11.6145 181.107 11.6327C181.139 11.6508 181.166 11.6773 181.185 11.7092C181.227 11.7809 181.251 11.8612 181.255 11.9435C181.262 12.0066 181.262 12.0702 181.255 12.1333V28.4734L182.699 28.45Z" fill="#595959"/>
<path d="M186.453 28.4486H187.902V10.3212H186.453V28.4486ZM202.096 28.4486L191.752 20.732C191.551 20.5843 191.344 20.425 191.129 20.2634C190.931 20.1046 190.752 19.9255 190.595 19.7292C190.454 19.5705 190.369 19.3716 190.353 19.1624C190.361 19.0196 190.408 18.8813 190.489 18.7618C190.582 18.6281 190.69 18.5055 190.812 18.3963C190.943 18.2792 191.071 18.1761 191.199 18.0801L191.53 17.8458L201.086 10.3352H199.012L190.257 17.157C190.036 17.3269 189.829 17.5134 189.639 17.7146C189.439 17.919 189.268 18.1482 189.131 18.3963C189.002 18.6191 188.931 18.8692 188.924 19.1249C188.932 19.3908 189.003 19.6513 189.131 19.8863C189.285 20.1711 189.477 20.4348 189.701 20.671C189.962 20.9493 190.249 21.2036 190.559 21.43L199.93 28.4581L202.096 28.4486Z" fill="#595959"/>
<path d="M201.545 28.449H203.093L205.362 23.1664H216.201L218.472 28.449H220.019L212.866 12.0316C212.73 11.7077 212.568 11.3945 212.383 11.0946C212.211 10.8209 211.988 10.5821 211.722 10.3918C211.448 10.2009 211.116 10.1015 210.779 10.1083C210.443 10.1029 210.112 10.1996 209.837 10.3847C209.571 10.5736 209.346 10.8126 209.178 11.0875C208.989 11.3865 208.829 11.6999 208.695 12.0246L201.541 28.4419L201.545 28.449ZM209.999 12.4439C210.051 12.3151 210.114 12.1722 210.185 12.0129C210.254 11.8649 210.341 11.725 210.443 11.5959C210.475 11.5388 210.524 11.4912 210.581 11.458C210.639 11.4248 210.704 11.4074 210.773 11.4074C210.84 11.4074 210.905 11.4248 210.964 11.458C211.023 11.4912 211.069 11.5388 211.102 11.5959C211.205 11.725 211.29 11.8649 211.361 12.0129C211.43 12.1722 211.493 12.3151 211.546 12.4439L215.631 21.9224H205.923L210.009 12.4439H209.999Z" fill="#595959"/>
<path d="M87.2818 37.1507C86.7987 37.1507 86.2965 37.1507 85.7531 37.1905C85.2014 37.2231 84.6532 37.2967 84.113 37.4107C83.5528 37.5254 83.0088 37.7045 82.4926 37.9449C81.9574 38.2005 81.4679 38.5384 81.0436 38.9451C80.5811 39.401 80.1999 39.9283 79.9157 40.5053C79.6448 41.0646 79.442 41.6528 79.3119 42.2576C79.1892 42.8395 79.1085 43.4289 79.0702 44.0217C79.0365 44.5963 79.0219 45.125 79.0268 45.6076C79.0268 46.0926 79.0268 46.6196 79.0702 47.1961C79.1089 47.7871 79.1896 48.3749 79.3119 48.9553C79.4418 49.5618 79.6444 50.1516 79.9157 50.7123C80.1999 51.2887 80.5811 51.8152 81.0436 52.2703C81.4661 52.678 81.9558 53.0145 82.4926 53.2658C83.0082 53.5093 83.5524 53.691 84.113 53.807C84.6534 53.9183 85.2016 53.9903 85.7531 54.0226C86.2965 54.0552 86.8036 54.0694 87.2818 54.067C87.7599 54.0647 88.2721 54.067 88.813 54.0226C89.3659 53.9897 89.9156 53.9177 90.4578 53.807C91.0167 53.6898 91.5591 53.5081 92.0735 53.2658C92.6106 53.0152 93.1006 52.6785 93.5226 52.2703C93.9865 51.8164 94.3678 51.2897 94.6505 50.7123C94.9236 50.152 95.1269 49.5622 95.2567 48.9553C95.379 48.3749 95.4597 47.7871 95.4982 47.1961C95.5296 46.6196 95.5464 46.0926 95.5416 45.6076C95.5369 45.1228 95.5416 44.5955 95.4982 44.0217C95.4599 43.4289 95.3792 42.8395 95.2567 42.2576C95.1265 41.6524 94.9232 41.0642 94.6505 40.5053C94.3678 39.9273 93.9867 39.3998 93.5226 38.9451C93.0988 38.5374 92.6094 38.1998 92.0735 37.9449C91.5585 37.7055 91.0161 37.5264 90.4578 37.4107C89.916 37.2972 89.3661 37.2237 88.813 37.1905C88.2721 37.1576 87.7624 37.146 87.2818 37.1507ZM80.4373 45.6076C80.4373 45.1273 80.4373 44.6308 80.4663 44.12C80.4907 43.6087 80.548 43.0995 80.6377 42.5951C80.7285 42.0969 80.8751 41.6098 81.0748 41.1425C81.2761 40.6772 81.5543 40.2467 81.8984 39.8681C82.2469 39.4907 82.6646 39.1793 83.1301 38.9498C83.5721 38.7345 84.0415 38.577 84.526 38.4812C84.998 38.3874 85.4769 38.3294 85.9583 38.3079C86.4293 38.2892 86.8713 38.2798 87.2818 38.2845C87.6924 38.2892 88.1344 38.2845 88.6054 38.3079C89.0874 38.3294 89.5671 38.3874 90.0399 38.4812C90.5253 38.5773 90.9955 38.7349 91.4383 38.9498C91.902 39.1801 92.318 39.4915 92.6651 39.8681C93.0108 40.2455 93.2892 40.6762 93.4887 41.1425C93.6894 41.6098 93.8366 42.0967 93.9283 42.5951C94.0173 43.0995 94.0736 43.6089 94.0974 44.12C94.1215 44.6308 94.1312 45.1265 94.1264 45.6076C94.1215 46.0886 94.112 46.5854 94.0974 47.0975C94.0736 47.6081 94.0173 48.1167 93.9283 48.6203C93.8366 49.1185 93.6894 49.6056 93.4887 50.0727C93.2892 50.5398 93.011 50.9713 92.6651 51.3495C92.3166 51.7235 91.901 52.0331 91.4383 52.2632C90.9963 52.4801 90.5259 52.6378 90.0399 52.7316C89.5671 52.8264 89.0876 52.885 88.6054 52.9075C88.1344 52.9261 87.6973 52.9332 87.2818 52.9309C86.8664 52.9285 86.4293 52.9309 85.9583 52.9075C85.4769 52.885 84.998 52.8264 84.526 52.7316C84.0409 52.638 83.5713 52.4805 83.1301 52.2632C82.6658 52.0337 82.2483 51.7241 81.8984 51.3495C81.5543 50.9701 81.2761 50.5388 81.0748 50.0727C80.8751 49.6054 80.7285 49.1185 80.6377 48.6203C80.548 48.1167 80.4907 47.6081 80.4663 47.0975C80.4469 46.5846 80.4349 46.0879 80.4373 45.6076Z" fill="#595959"/>
<path d="M98.4617 53.8809H99.7779V37.3417H98.4617V53.8809ZM112.735 53.8809L103.316 46.8529C103.135 46.7193 102.944 46.5718 102.749 46.4149C102.57 46.2701 102.408 46.1067 102.266 45.9276C102.141 45.7806 102.068 45.5995 102.055 45.4097C102.062 45.2797 102.103 45.1537 102.176 45.0443C102.262 44.9224 102.362 44.8101 102.473 44.7094C102.592 44.604 102.715 44.5102 102.826 44.4236L103.128 44.2057L111.846 37.3535H109.946L101.944 43.5733C101.743 43.7274 101.554 43.8974 101.382 44.0814C101.2 44.2683 101.044 44.4769 100.918 44.7023C100.801 44.9065 100.736 45.1344 100.727 45.3676C100.734 45.6131 100.799 45.8536 100.918 46.0705C101.057 46.3309 101.232 46.572 101.437 46.7874C101.673 47.0438 101.933 47.279 102.212 47.4901L110.762 53.8809H112.735Z" fill="#595959"/>
<path d="M120.516 37.1495C120.033 37.1495 119.531 37.1495 118.987 37.1895C118.436 37.2221 117.888 37.2957 117.347 37.4097C116.787 37.5244 116.243 37.7035 115.727 37.9439C115.192 38.1995 114.702 38.5374 114.278 38.9441C113.815 39.4 113.434 39.9273 113.15 40.5043C112.879 41.0636 112.676 41.6518 112.546 42.2566C112.424 42.8385 112.343 43.4279 112.305 44.0207C112.271 44.5953 112.255 45.124 112.259 45.6066C112.259 46.0916 112.271 46.6186 112.305 47.1951C112.343 47.7861 112.424 48.3739 112.546 48.9543C112.676 49.5608 112.879 50.1506 113.15 50.7113C113.434 51.2877 113.815 51.8142 114.278 52.2693C114.7 52.677 115.19 53.0135 115.727 53.2648C116.242 53.5083 116.787 53.69 117.347 53.806C117.888 53.9173 118.436 53.9893 118.987 54.0216C119.531 54.0542 120.038 54.0684 120.516 54.066C120.994 54.0637 121.506 54.066 122.047 54.0216C122.6 53.9887 123.15 53.9167 123.692 53.806C124.251 53.6888 124.793 53.5071 125.308 53.2648C125.845 53.014 126.335 52.6775 126.757 52.2693C127.221 51.8154 127.602 51.2887 127.885 50.7113C128.156 50.1529 128.357 49.5657 128.486 48.9613C128.607 48.3808 128.688 47.7929 128.728 47.202C128.759 46.6257 128.776 46.0987 128.771 45.6137C128.766 45.1287 128.771 44.6016 128.728 44.0278C128.688 43.435 128.607 42.8458 128.486 42.2637C128.356 41.6583 128.153 41.0703 127.88 40.5114C127.597 39.9334 127.216 39.4057 126.752 38.9512C126.328 38.5435 125.839 38.2056 125.303 37.9508C124.788 37.7116 124.246 37.5324 123.687 37.4166C123.146 37.3033 122.596 37.2296 122.043 37.1965C121.502 37.1637 120.992 37.1519 120.511 37.1566L120.516 37.1495ZM113.672 45.6066C113.672 45.1263 113.671 44.6297 113.7 44.119C113.725 43.6077 113.782 43.0983 113.872 42.5941C113.963 42.0959 114.109 41.6088 114.309 41.1415C114.51 40.6762 114.789 40.2457 115.133 39.8671C115.481 39.4891 115.899 39.1778 116.364 38.9488C116.806 38.7335 117.276 38.576 117.76 38.4802C118.232 38.3864 118.711 38.3284 119.193 38.3069C119.664 38.2882 120.106 38.2788 120.516 38.2835C120.927 38.2882 121.369 38.2835 121.84 38.3069C122.322 38.3286 122.801 38.3866 123.274 38.4802C123.759 38.5764 124.23 38.7339 124.673 38.9488C125.136 39.1791 125.552 39.4905 125.899 39.8671C126.245 40.2445 126.524 40.6752 126.723 41.1415C126.924 41.6088 127.071 42.0957 127.163 42.5941C127.251 43.0985 127.308 43.6079 127.332 44.119C127.356 44.6297 127.366 45.1255 127.361 45.6066C127.356 46.0876 127.346 46.5842 127.332 47.0965C127.308 47.6071 127.251 48.1157 127.163 48.6193C127.071 49.1175 126.924 49.6046 126.723 50.0717C126.524 50.5388 126.245 50.9703 125.899 51.3485C125.551 51.7225 125.135 52.0321 124.673 52.2622C124.23 52.4791 123.76 52.6366 123.274 52.7306C122.801 52.8252 122.322 52.8839 121.84 52.9065C121.369 52.9252 120.931 52.9322 120.516 52.9299C120.101 52.9275 119.664 52.9299 119.193 52.9065C118.711 52.884 118.232 52.8252 117.76 52.7306C117.275 52.637 116.805 52.4795 116.364 52.2622C115.9 52.0335 115.482 51.7237 115.133 51.3485C114.789 50.9691 114.51 50.5378 114.309 50.0717C114.109 49.6044 113.963 49.1175 113.872 48.6193C113.782 48.1157 113.725 47.6071 113.7 47.0965C113.681 46.5834 113.669 46.0869 113.672 45.6066Z" fill="#595959"/>
<path d="M145.375 37.338H144.059V44.9H133.002V37.338H131.686V53.877H133.002V46.0338H144.059V53.877H145.375V37.338Z" fill="#595959"/>
<path d="M0 0H39.8862C45.4465 0.00929073 50.7761 2.15586 54.7076 5.96948C58.6394 9.78308 60.8522 14.9528 60.862 20.346V44.6793H46.0982V20.346C46.0886 18.7511 45.4309 17.2241 44.2681 16.0965C43.1051 14.9689 41.5306 14.3316 39.8862 14.3231H0V0Z" fill="#898989"/>
<path d="M60.862 59.0006H20.8863C15.6634 58.9892 10.6319 57.0929 6.77109 53.6812C2.91033 50.2692 0.496658 45.5858 0 40.5427V14.3236H14.6745V38.6546C14.6846 40.2496 15.3423 41.7763 16.5051 42.9042C17.6678 44.0321 19.2419 44.6701 20.8863 44.6799H60.862V59.0006Z" fill="#33C5F3"/>
</g>
</g>
<defs>
<clipPath id="clip0_602_47731">
<rect width="221" height="59" fill="white"/>
</clipPath>
</defs>
</svg>
