<svg width="16" height="16" viewBox="0 0 16 16" fill="none" xmlns="http://www.w3.org/2000/svg">
<path d="M15.281 14.2194C15.3507 14.2891 15.406 14.3718 15.4437 14.4629C15.4814 14.5539 15.5008 14.6515 15.5008 14.7501C15.5008 14.8486 15.4814 14.9462 15.4437 15.0372C15.406 15.1283 15.3507 15.211 15.281 15.2807C15.2114 15.3504 15.1286 15.4056 15.0376 15.4433C14.9465 15.4811 14.849 15.5005 14.7504 15.5005C14.6519 15.5005 14.5543 15.4811 14.4632 15.4433C14.3722 15.4056 14.2895 15.3504 14.2198 15.2807L8.00042 9.06036L1.78104 15.2807C1.64031 15.4214 1.44944 15.5005 1.25042 15.5005C1.05139 15.5005 0.860523 15.4214 0.719792 15.2807C0.579062 15.1399 0.5 14.9491 0.5 14.7501C0.5 14.551 0.579062 14.3602 0.719792 14.2194L6.9401 8.00005L0.719792 1.78068C0.579062 1.63995 0.5 1.44907 0.5 1.25005C0.5 1.05103 0.579062 0.860156 0.719792 0.719426C0.860523 0.578695 1.05139 0.499634 1.25042 0.499634C1.44944 0.499634 1.64031 0.578695 1.78104 0.719426L8.00042 6.93974L14.2198 0.719426C14.3605 0.578695 14.5514 0.499634 14.7504 0.499634C14.9494 0.499634 15.1403 0.578695 15.281 0.719426C15.4218 0.860156 15.5008 1.05103 15.5008 1.25005C15.5008 1.44907 15.4218 1.63995 15.281 1.78068L9.06073 8.00005L15.281 14.2194Z" fill="#C5C5C5"/>
</svg>
