<svg width="32" height="32" viewBox="0 0 32 32" fill="none" xmlns="http://www.w3.org/2000/svg">
<path d="M20.0966 2.66678H11.916C4.44376 2.66678 2.66602 4.44453 2.66602 11.9029V20.0834C2.66602 27.5556 4.42994 29.3334 11.9021 29.3334H20.0827C27.5549 29.3334 29.3327 27.5695 29.3327 20.0973V11.9168C29.3327 4.44453 27.5688 2.66678 20.0966 2.66678ZM24.1938 21.6945H22.2493C21.5133 21.6945 21.291 21.0973 19.9716 19.7779C18.8188 18.6668 18.3327 18.5279 18.041 18.5279C17.6383 18.5279 17.5271 18.639 17.5271 19.1945V20.9445C17.5271 21.4168 17.3743 21.6945 16.1383 21.6945C14.9388 21.6139 13.7756 21.2495 12.7445 20.6314C11.7134 20.0132 10.844 19.159 10.2077 18.139C8.69716 16.2588 7.64616 14.0522 7.13827 11.6945C7.13827 11.4029 7.24935 11.139 7.80494 11.139H9.74935C10.2493 11.139 10.4299 11.3612 10.6243 11.8751C11.5688 14.6529 13.1799 17.0695 13.8327 17.0695C14.0827 17.0695 14.1938 16.9584 14.1938 16.3334V13.4723C14.1104 12.1668 13.416 12.0556 13.416 11.5834C13.4252 11.4589 13.4825 11.3428 13.5758 11.2598C13.6692 11.1768 13.7912 11.1334 13.916 11.139H16.9716C17.3883 11.139 17.5271 11.3473 17.5271 11.8473V15.7084C17.5271 16.1251 17.7077 16.264 17.8327 16.264C18.0827 16.264 18.2771 16.1251 18.7354 15.6668C19.7203 14.4657 20.5251 13.1276 21.1243 11.6945C21.1855 11.5221 21.3015 11.3744 21.4544 11.2741C21.6074 11.1738 21.7891 11.1263 21.9716 11.139H23.916C24.4993 11.139 24.6243 11.4306 24.4993 11.8473C23.7918 13.4317 22.9165 14.9357 21.8883 16.3334C21.6799 16.6529 21.5966 16.8195 21.8883 17.1945C22.0827 17.4862 22.7633 18.0556 23.2216 18.5973C23.8883 19.2623 24.4418 20.0317 24.8604 20.8751C25.0271 21.4168 24.7493 21.6945 24.1938 21.6945Z" fill="white"/>
</svg>
