<svg width="32" height="32" viewBox="0 0 32 32" fill="none" xmlns="http://www.w3.org/2000/svg">
<path fill-rule="evenodd" clip-rule="evenodd" d="M11.916 2.66675H20.0966C27.5688 2.66675 29.3327 4.44449 29.3327 11.9167V20.0973C29.3327 27.5695 27.5549 29.3334 20.0827 29.3334H11.9021C4.42994 29.3334 2.66602 27.5556 2.66602 20.0834V11.9028C2.66602 4.44449 4.44376 2.66675 11.916 2.66675ZM19.9633 10.377C17.3249 10.1705 14.6745 10.1705 12.0362 10.377L10.2639 10.5156C9.2767 10.5928 8.46912 11.3327 8.30594 12.3093C7.89765 14.753 7.89765 17.2474 8.30594 19.6911C8.46912 20.6677 9.2767 21.4076 10.2639 21.4848L12.0362 21.6234C14.6745 21.8299 17.3249 21.8299 19.9633 21.6234L21.7356 21.4848C22.7227 21.4076 23.5303 20.6677 23.6935 19.6911C24.1018 17.2474 24.1018 14.753 23.6935 12.3093C23.5303 11.3327 22.7227 10.5928 21.7356 10.5156L19.9633 10.377ZM14.4178 14.0464V17.954C14.4178 18.1384 14.619 18.2523 14.7772 18.1574L18.0334 16.2037C18.187 16.1115 18.187 15.8889 18.0334 15.7967L14.7772 13.843C14.619 13.7481 14.4178 13.862 14.4178 14.0464Z" fill="white"/>
</svg>
