<svg width="32" height="32" viewBox="0 0 32 32" fill="none" xmlns="http://www.w3.org/2000/svg">
<path d="M20.0966 2.66675H11.916C4.44376 2.66675 2.66602 4.44449 2.66602 11.9028V20.0834C2.66602 27.5556 4.42994 29.3334 11.9021 29.3334H20.0827C27.5549 29.3334 29.3327 27.5695 29.3327 20.0973V11.9167C29.3327 4.44449 27.5688 2.66675 20.0966 2.66675Z" fill="white"/>
<path d="M21.0073 22.7405C21.1042 22.6478 21.1801 22.5354 21.23 22.411L23.7747 9.4157C23.7747 8.549 22.6 9.07236 22.6 9.07236L8.31068 14.749C8.31068 14.749 7.63402 14.9837 7.68869 15.4157C7.74069 15.851 8.29269 16.049 8.29269 16.049L11.8867 17.273L20.5167 11.721C20.5167 11.721 21.014 11.4136 20.9987 11.721C20.9987 11.721 21.0874 11.7756 20.8187 12.0276C20.5534 12.2803 14.0401 18.2103 14.0401 18.2103L14.031 18.289L14.0167 18.2777L13.5714 22.2623C13.634 22.2862 13.7016 22.294 13.768 22.2849C13.8344 22.2758 13.8975 22.2502 13.9514 22.2104L16.2745 20.0672L19.894 22.8797C20.0107 22.9456 20.1402 22.9859 20.2738 22.9978C20.4073 23.0097 20.5418 22.9928 20.6684 22.9485C20.7949 22.9041 20.9104 22.8332 21.0073 22.7405Z" fill="#0D0D0D"/>
</svg>
