<svg width="24" height="24" viewBox="0 0 24 24" fill="none" xmlns="http://www.w3.org/2000/svg">
<path fill-rule="evenodd" clip-rule="evenodd" d="M12.0075 12.2048C10.3125 12.2048 8.90402 10.797 8.90402 9.13125C8.90402 7.40775 10.3125 6 12.0083 6C13.761 6 15.1118 7.40775 15.1118 9.13125C15.1104 9.53701 15.029 9.93851 14.8721 10.3127C14.7153 10.687 14.4862 11.0266 14.1979 11.3121C13.9096 11.5976 13.5678 11.8234 13.192 11.9766C12.8163 12.1298 12.414 12.2073 12.0083 12.2048H12.0075ZM12.0075 7.80975C11.2898 7.80975 10.7438 8.41275 10.7438 9.13125C10.7438 9.849 11.2898 10.395 12.0083 10.395C12.7553 10.395 13.2728 9.849 13.2728 9.13125C13.2728 8.41275 12.7553 7.80975 12.0083 7.80975H12.0075ZM13.2435 14.7615L14.997 16.4565C15.342 16.8293 15.342 17.3753 14.997 17.7203C14.6235 18.093 14.0483 18.093 13.761 17.7203L12.0083 15.9968L10.3125 17.7203C10.14 17.8928 9.90977 17.9783 9.65102 17.9783C9.45002 17.9783 9.22052 17.892 9.01877 17.7203C8.67377 17.3753 8.67377 16.8293 9.01877 16.4558L10.8008 14.7608C10.1572 14.57 9.5397 14.3002 8.96252 13.9575C8.53127 13.728 8.44502 13.1535 8.67452 12.7223C8.96252 12.2918 9.47927 12.177 9.93977 12.4643C10.5629 12.8447 11.2789 13.046 12.009 13.046C12.7391 13.046 13.4551 12.8447 14.0783 12.4643C14.538 12.177 15.084 12.2918 15.3428 12.7223C15.6015 13.1535 15.486 13.7273 15.084 13.9575C14.538 14.3025 13.9058 14.5613 13.2443 14.7622L13.2435 14.7615Z" fill="white"/>
</svg>
